<svg width="171" height="121" viewBox="0 0 171 121" fill="none" xmlns="http://www.w3.org/2000/svg">
<path d="M89.7666 96.0996C92.0226 96.0267 94.2787 96.0267 96.5347 96.0996C98.2813 96.0996 99.8823 97.1934 100.865 98.6153C101.665 99.8549 101.702 101.386 101.483 102.808C101.265 104.23 100.21 105.36 99.0818 106.162C97.0441 107.439 94.6061 106.855 92.3501 107.001C92.1318 109.371 92.3501 111.777 92.2773 114.147C91.4404 114.22 90.6035 114.22 89.7666 114.147C89.7302 108.131 89.6939 102.115 89.7666 96.0996ZM92.3137 98.6153C92.1682 100.548 92.1318 102.516 92.2773 104.485C93.842 104.485 95.4067 104.595 96.9713 104.412C99.0818 103.683 99.6276 100.621 97.9174 99.1987C96.28 98.1413 94.1695 98.7611 92.3137 98.6153ZM127.391 100.985C127.428 99.8549 127.282 98.7247 127.537 97.6309C128.337 97.6309 129.138 97.6309 129.975 97.6673C130.047 98.7611 129.975 99.8549 130.047 100.949C130.884 101.386 131.976 101.058 132.958 101.204C132.995 101.97 132.995 102.735 132.958 103.537C131.976 103.574 130.994 103.61 130.047 103.72C130.047 106.053 130.011 108.387 130.047 110.756C130.011 111.376 130.302 112.069 130.957 112.215C131.685 112.215 132.413 112.215 133.14 112.142C133.213 112.944 133.14 113.746 132.958 114.512C131.794 114.585 130.593 114.73 129.429 114.402C128.519 113.855 127.573 113.017 127.537 111.887C127.282 109.189 127.61 106.491 127.355 103.793C126.627 103.683 125.863 103.574 125.135 103.464C125.135 102.735 125.135 102.006 125.172 101.277C125.899 101.131 126.7 101.204 127.391 100.985ZM103.667 103.501C105.668 99.7456 112.036 99.7456 114.073 103.501C114.656 104.741 114.51 106.162 114.546 107.475C114.51 109.699 114.583 111.923 114.51 114.147C113.855 114.184 113.2 114.184 112.545 114.147C112.327 113.855 112.145 113.527 111.927 113.236C110.435 114.184 108.688 115.168 106.905 114.548C104.285 114.147 102.284 111.157 103.448 108.642C104.176 106.709 106.286 105.834 108.215 105.688C109.561 105.579 110.871 106.053 112.218 106.126C112.072 104.558 110.908 103.027 109.197 103.136C107.706 102.881 106.468 103.793 105.486 104.813C104.758 104.485 104.176 104.011 103.667 103.501ZM105.741 110.392C105.85 111.704 107.269 112.434 108.47 112.361C110.362 112.215 111.89 110.683 111.999 108.788C110.98 107.876 109.452 107.803 108.179 107.913C106.905 108.022 105.595 109.006 105.741 110.392ZM137.652 102.188C138.817 101.496 140.018 100.584 141.509 100.73C144.02 100.511 146.276 102.735 146.276 105.178C146.313 108.168 146.276 111.121 146.276 114.111C145.439 114.184 144.602 114.22 143.766 114.147C143.656 111.194 143.911 108.241 143.62 105.287C143.474 103.392 141.146 102.808 139.617 103.392C138.271 103.975 137.543 105.433 137.507 106.855C137.434 109.298 137.543 111.704 137.507 114.147C136.634 114.22 135.797 114.22 134.923 114.147C134.887 109.845 134.887 105.506 134.923 101.204C135.724 101.131 136.488 101.131 137.289 101.24C137.398 101.423 137.58 101.933 137.652 102.188ZM150.825 101.897C153.263 100.001 157.156 100.329 159.194 102.662C160.467 104.194 161.013 106.199 160.758 108.204C157.484 108.314 154.172 108.204 150.897 108.241C150.606 110.647 153.081 112.616 155.373 112.215C156.719 112.178 157.52 111.012 158.43 110.173C159.23 110.1 159.885 110.683 160.54 110.975C159.23 114.257 154.9 115.606 151.807 114.001C147.259 111.923 146.931 104.813 150.825 101.897ZM150.861 106.053C153.226 106.162 155.628 106.162 158.029 106.053C157.811 104.267 156.21 102.99 154.427 103.136C152.644 103.027 151.37 104.522 150.861 106.053ZM167.49 100.876C168.4 100.584 169.382 100.73 170.328 100.876C170.401 101.751 170.437 102.626 170.401 103.501C169.455 103.464 168.473 103.209 167.526 103.428C166.18 103.975 165.27 105.287 165.307 106.746C165.234 109.189 165.343 111.595 165.307 114.038C164.47 114.147 163.597 114.147 162.76 114.074C162.723 109.772 162.723 105.433 162.76 101.131C163.415 101.058 164.106 101.058 164.761 101.058C164.979 101.386 165.198 101.714 165.452 102.043C166.144 101.641 166.835 101.24 167.49 100.876ZM119.168 102.444C120.114 101.933 120.951 101.095 122.079 101.095C122.661 101.058 123.279 101.095 123.862 101.131C123.898 101.933 123.898 102.735 123.898 103.501C122.77 103.683 121.424 103.392 120.514 104.23C119.895 104.813 119.313 105.579 119.313 106.491C119.204 109.116 119.386 111.741 119.24 114.402C118.44 114.475 117.603 114.475 116.766 114.439C116.693 110.1 116.693 105.761 116.766 101.459C117.494 101.386 118.185 101.423 118.913 101.532C118.949 101.714 119.095 102.188 119.168 102.444Z" fill="#8895A7" stroke="#8895A7" stroke-width="0.0911494" stroke-miterlimit="10"/>
<path d="M59.4195 11.0025C66.6242 3.52825 77.1402 -0.372943 87.4378 0.0281143C93.4781 0.429172 99.5184 1.99695 104.685 5.24187C106.832 6.59088 108.979 8.0128 110.653 9.90871C109.016 11.8046 107.123 13.4818 105.377 15.3047C103.557 17.0913 101.811 18.9872 99.9187 20.7008C96.9713 18.0028 93.2962 15.961 89.2936 15.4141C85.1454 14.9402 80.7425 15.1225 76.9583 17.0184C72.7009 18.9872 69.1713 22.1956 66.8062 26.2427C66.0056 27.5917 65.4598 29.0865 64.8048 30.5085C60.5839 27.4094 56.5449 24.0551 52.3604 20.8831C54.0706 17.1642 56.4721 13.8099 59.4195 11.0025Z" fill="#8895A7"/>
<path d="M52.3967 20.8466C56.5813 24.0186 60.6203 27.3365 64.8412 30.472C64.2226 33.4982 63.2765 36.5973 63.8587 39.7328C64.0407 41.4464 64.5501 43.1236 64.8412 44.8007C61.5663 47.3894 58.2187 49.9415 54.9438 52.5666C54.1069 53.2229 53.2336 53.8063 52.2876 54.2802C49.9951 49.7592 48.6852 44.7643 48.4669 39.6963C48.2849 36.3785 48.5033 33.0242 49.1582 29.7428C49.9587 26.7167 50.7957 23.6176 52.3967 20.8466Z" fill="#8895A7"/>
<path d="M86.0917 30.7637C96.353 30.7637 106.614 30.7637 116.875 30.7637C118.185 30.7637 119.495 30.6543 120.805 30.8731C123.061 42.0662 120.623 54.4261 113.2 63.2493C112.4 64.1973 111.599 65.2546 110.508 65.8744C106.396 62.8483 102.502 59.6034 98.4271 56.5407C101.993 53.8792 104.722 49.8322 105.195 45.3476C98.7909 45.2382 92.3868 45.3841 85.9826 45.2747C85.8006 41.4829 85.9826 37.6546 85.9098 33.8628C85.9462 32.8419 85.7642 31.7846 86.0917 30.7637Z" fill="#8895A7"/>
<path d="M54.9441 52.6031C58.219 49.978 61.5667 47.4258 64.8415 44.8372C65.642 46.332 66.1515 48.0092 67.0975 49.4311C70.0813 54.3167 74.8117 57.9262 80.3425 59.4575C84.1996 60.2961 88.2022 60.2961 92.0229 59.3846C94.2789 58.8013 96.353 57.7075 98.3907 56.5772C102.466 59.6398 106.36 62.9212 110.471 65.9109C109.489 67.187 108.143 68.062 106.833 68.9735C100.719 73.3122 93.1509 75.0258 85.7643 75.2081C78.3049 75.0623 70.8454 72.9476 64.696 68.6454C59.3834 64.9994 55.0897 60.0773 52.2515 54.3167C53.2339 53.8427 54.1072 53.2594 54.9441 52.6031Z" fill="#8895A7"/>
<path d="M4.29266 97.485C6.91255 95.4068 10.6968 95.261 13.7534 96.3912C14.845 96.9017 16.0822 97.5215 16.628 98.7247C16.1186 99.308 15.5727 99.8549 14.9542 100.329C14.0809 99.5997 13.1712 98.834 12.0796 98.4695C9.3505 97.6673 6.11202 98.5059 4.4382 100.876C3.01909 102.516 2.94633 104.85 3.27381 106.928C3.8924 110.137 7.16726 112.506 10.4057 112.215C13.3167 112.251 16.1913 109.808 16.1913 106.782C14.0809 106.636 11.9704 106.782 9.85992 106.709C9.56883 106.053 9.53244 105.287 9.71438 104.595C12.6618 104.303 15.6819 104.485 18.6293 104.485C18.9568 107.147 18.5565 110.1 16.5188 112.032C13.244 115.533 7.31281 115.569 3.78323 112.506C-0.255768 109.079 -0.728802 102.99 2.728 98.9434C3.20104 98.433 3.71046 97.9225 4.29266 97.485ZM65.2416 96.2089C66.0785 96.0631 66.9518 96.0266 67.7887 96.0996C67.8978 102.079 67.8251 108.058 67.8251 114.038C66.9881 114.329 66.1149 114.184 65.2416 114.147C65.2052 108.168 65.2416 102.188 65.2416 96.2089ZM25.3974 100.949C27.2531 100.548 29.3272 100.766 30.8919 101.897C33.9484 103.902 34.7853 108.423 32.8568 111.486C31.7288 113.637 29.218 114.767 26.8528 114.767C25.2518 114.585 23.6144 114.038 22.4864 112.871C20.5578 111.048 19.9392 108.058 20.7034 105.579C21.2492 103.282 23.2141 101.569 25.3974 100.949ZM25.7248 103.428C24.1966 104.011 23.1777 105.433 23.1049 107.037C22.9594 108.605 23.2505 110.428 24.5968 111.413C26.6709 113.236 30.3824 112.069 31.0374 109.407C31.3649 107.73 31.4013 105.616 29.9822 104.376C28.9997 103.173 27.1803 102.954 25.7248 103.428ZM40.0251 100.985C41.7353 100.621 43.6274 100.657 45.1557 101.605C48.7581 103.464 49.7041 108.642 47.4117 111.85C46.2473 113.746 43.9913 114.767 41.8081 114.803C39.734 114.658 37.5871 113.746 36.4227 111.96C35.2583 110.428 35.0764 108.423 35.2583 106.563C35.5131 103.938 37.5871 101.751 40.0251 100.985ZM40.6073 103.392C37.1869 104.449 36.7502 109.699 39.5884 111.631C40.9712 112.579 43.118 112.579 44.3916 111.413C46.4657 109.772 46.5748 106.381 44.8646 104.449C43.8094 103.246 42.0628 102.954 40.6073 103.392ZM50.1772 105.543C50.8685 102.808 53.452 100.475 56.363 100.766C57.7821 100.657 58.9101 101.605 60.0745 102.261C60.1837 101.897 60.2929 101.532 60.402 101.167C61.1662 101.131 61.9303 101.131 62.6581 101.167C62.7308 105.324 62.6581 109.517 62.6944 113.673C62.7308 115.715 61.8939 117.939 60.1109 119.069C58.5463 120.09 56.5814 120.09 54.7984 119.908C52.7971 119.616 51.1232 118.231 50.5047 116.298C51.1232 115.824 51.8146 115.241 52.6151 115.387C53.3065 116.116 53.8887 116.955 54.7984 117.429C56.4358 118.231 58.5827 117.538 59.6379 116.08C60.2201 115.204 60.1837 114.111 60.1837 113.126C58.8374 114.001 57.3091 114.949 55.6353 114.767C53.9615 114.512 52.1785 113.783 51.2324 112.288C49.8497 110.355 49.595 107.803 50.1772 105.543ZM54.8712 103.464C52.0329 104.777 51.6691 109.006 53.6704 111.194C54.8712 112.397 56.6905 112.652 58.1824 111.85C60.9842 110.137 61.0206 105.433 58.2916 103.647C57.2363 103.1 55.9992 103.027 54.8712 103.464ZM71.8277 102.589C73.0285 101.313 74.7023 100.657 76.4489 100.766C78.5957 100.657 80.5971 102.042 81.6887 103.829C82.4164 105.142 82.4892 106.673 82.4528 108.168C79.2143 108.569 75.9031 108.168 72.6282 108.35C72.3371 110.829 74.9934 112.835 77.3222 112.251C78.6685 112.105 79.3963 110.939 80.1968 110.027C80.8881 110.319 81.5431 110.647 82.1981 110.939C81.7614 112.835 79.8329 114.111 78.0135 114.548C76.085 115.132 74.0109 114.512 72.4099 113.418C70.6633 112.142 70.0083 109.881 69.79 107.84C69.9355 105.98 70.4086 103.938 71.8277 102.589ZM74.6295 103.501C73.5015 103.902 72.9921 105.105 72.6646 106.162C75.0298 106.199 77.395 106.199 79.7601 106.162C79.5054 105.397 79.3235 104.522 78.6685 103.975C77.5769 103.063 75.9395 103.027 74.6295 103.501Z" fill="#8895A7" stroke="#8895A7" stroke-width="0.364598" stroke-miterlimit="10"/>
</svg>
