<svg width="143" height="60" viewBox="0 0 143 60" fill="none" xmlns="http://www.w3.org/2000/svg">
<g clip-path="url(#clip0_1711_148)">
<path d="M142.823 59.9221C142.807 59.9452 142.861 59.9988 142.786 59.9964C142.688 59.9927 142.589 59.9964 142.49 59.9964H3.79529C3.79529 40.0321 3.79529 20.069 3.79529 0.104773C3.93049 0.101119 4.06568 0.093811 4.20088 0.093811C9.39444 0.093811 14.5868 0.093811 19.7803 0.093811C60.7941 0.093811 101.808 0.093811 142.822 0.093811V0.168109C142.719 0.188815 142.71 0.286255 142.666 0.355681C141.73 1.8453 140.796 3.3337 139.862 4.82453C134.672 13.113 129.483 21.4028 124.285 29.6864C124.117 29.9543 124.106 30.1273 124.276 30.3989C130.102 39.685 135.917 48.9783 141.739 58.268C142.09 58.8271 142.395 59.4154 142.822 59.9245L142.823 59.9221ZM89.8922 17.6196C89.9628 17.6038 89.9543 17.6854 89.9836 17.6988C90.0652 17.739 90.0262 17.6513 90.0237 17.6355C90.0128 17.5587 90.0688 17.4698 89.986 17.4053C89.8678 17.4455 89.9312 17.5539 89.8971 17.6233C89.8386 17.6257 89.7801 17.633 89.7655 17.7037C89.757 17.7439 89.785 17.7719 89.824 17.7609C89.8959 17.7414 89.8703 17.6671 89.8922 17.6196ZM22.6634 22.9923C23.2504 22.3418 23.7583 21.7742 24.2711 21.2127C25.4039 19.9704 26.5731 18.7707 28.187 18.1397C28.2893 18.0995 28.3636 18.0484 28.3478 17.9278C28.3246 17.7573 28.1858 17.8072 28.0859 17.8072C26.9142 17.8048 25.7412 17.8048 24.5695 17.8072C24.4794 17.8072 24.3552 17.7621 24.3186 17.8973C24.2772 18.0508 24.3856 18.102 24.505 18.1641C24.9033 18.3724 25.1128 18.6927 25.0385 19.1592C24.9971 19.4174 24.8923 19.6525 24.7632 19.8766C24.36 20.577 23.7888 21.1433 23.2736 21.7535C22.7218 22.4076 22.1603 23.0531 21.5245 23.7961C21.5245 23.5537 21.5245 23.4246 21.5245 23.2968C21.5245 21.164 21.5245 19.0325 21.5245 16.8998C21.5245 15.4455 21.5209 13.9912 21.5282 12.5369C21.5282 12.3043 21.505 12.2142 21.2273 12.2811C20.2456 12.515 19.2566 12.7147 18.2712 12.9352C18.1701 12.9583 18.0118 12.9157 18.0045 13.1155C17.9972 13.3043 18.13 13.297 18.2444 13.3225C18.5258 13.3871 18.7243 13.5661 18.8839 13.7915C19.1275 14.1362 19.1994 14.5296 19.1981 14.9461C19.1945 17.9777 19.1969 21.0093 19.1969 24.0422C19.1969 24.868 19.2152 25.6938 19.1908 26.5196C19.1689 27.2613 18.9643 27.9142 18.1409 28.1554C18.0459 28.1834 17.9984 28.2309 18.0057 28.3381C18.0179 28.5025 18.1397 28.4538 18.2262 28.4538C19.633 28.4562 21.0385 28.4562 22.4453 28.4538C22.5306 28.4538 22.6524 28.5049 22.6755 28.3466C22.695 28.2138 22.6134 28.1736 22.5123 28.1468C21.8607 27.9751 21.6281 27.4769 21.5659 26.8801C21.4807 26.058 21.5343 25.2297 21.5245 24.4051C21.5245 24.3174 21.5355 24.2358 21.6 24.1664C21.868 23.8777 22.1347 23.5866 22.3978 23.2931C22.5026 23.1762 22.5647 23.1969 22.6414 23.3272C22.84 23.667 23.0507 23.9995 23.2565 24.3357C23.8862 25.3637 24.5098 26.3953 25.1456 27.4197C25.5963 28.1456 26.2358 28.4988 27.1164 28.4903C29.6206 28.4672 32.1248 28.4818 34.6302 28.4818C34.7167 28.4818 34.8032 28.4818 34.8897 28.4818C34.9676 28.4818 35.0358 28.4733 35.037 28.3673C35.037 28.2881 34.992 28.2625 34.9262 28.2504C34.8409 28.2357 34.7569 28.2138 34.6716 28.2041C34.0821 28.1322 33.7192 27.7985 33.5255 27.2479C33.4037 26.902 33.3952 26.5488 33.3952 26.1919C33.3952 21.6939 33.3952 17.1946 33.3952 12.6965C33.3952 12.5503 33.3952 12.4029 33.3952 12.2263C32.26 12.4736 31.1565 12.716 30.0505 12.9535C29.9446 12.9766 29.8666 12.9949 29.8642 13.1301C29.8617 13.2787 29.9568 13.275 30.0578 13.2884C30.5487 13.3566 30.7996 13.6892 30.9543 14.1179C31.0517 14.3883 31.0615 14.6721 31.0615 14.9559C31.0615 18.7146 31.0615 22.4734 31.0603 26.2334C31.0603 26.4185 31.0578 26.6048 31.0335 26.7863C30.869 28.0202 29.7838 28.5695 28.6852 27.9812C28.2503 27.7485 27.9069 27.4233 27.6474 27.0068C27.1541 26.2126 26.6608 25.4185 26.1663 24.6256C26.0031 24.3649 25.8497 24.097 25.6353 23.8729C24.8436 23.0483 23.8692 22.7998 22.6646 22.9959L22.6634 22.9923ZM50.7554 26.7571C50.1792 24.6597 49.3936 22.6975 48.7042 20.7024C48.5191 20.1665 48.3461 19.6269 48.351 19.0496C48.3547 18.5197 48.513 18.3005 49.0209 18.1276C49.1269 18.091 49.2475 18.0764 49.2243 17.9205C49.2024 17.7743 49.0843 17.8072 48.9917 17.8072C47.524 17.806 46.0551 17.8048 44.5874 17.8072C44.5021 17.8072 44.3791 17.7573 44.3608 17.9168C44.3462 18.0386 44.4059 18.0934 44.5143 18.1288C44.8834 18.2469 45.144 18.5088 45.3742 18.8011C45.7189 19.2408 45.9479 19.7438 46.1489 20.2615C47.1671 22.8704 48.1452 25.494 49.0075 28.1602C49.0818 28.388 49.1768 28.4745 49.4156 28.4599C49.7468 28.4392 50.0818 28.4404 50.4143 28.4599C50.647 28.4733 50.7529 28.4002 50.8321 28.1688C51.4046 26.4818 51.988 24.7998 52.5811 23.1201C52.9368 22.1129 53.2754 21.097 53.6968 20.1165C54.0963 19.1872 54.6383 18.3444 55.7504 18.119C56.687 17.929 57.2656 18.3955 57.2668 19.3456C57.268 21.231 57.2692 23.1177 57.2668 25.0032C57.2668 25.5817 57.2838 26.1639 57.2388 26.74C57.1888 27.3734 56.9367 27.9057 56.2778 28.1395C56.184 28.1724 56.0841 28.1968 56.1012 28.3332C56.1194 28.4818 56.2315 28.455 56.3253 28.455C57.7199 28.455 59.1133 28.4562 60.5079 28.4538C60.5944 28.4538 60.7162 28.4988 60.7369 28.3429C60.7539 28.215 60.6784 28.1712 60.5737 28.1395C60.039 27.9775 59.8063 27.5658 59.6797 27.0616C59.6163 26.807 59.609 26.55 59.609 26.2906C59.609 23.5793 59.6078 20.8668 59.6127 18.1556C59.6127 17.9388 59.6212 17.7963 59.3167 17.7975C56.9976 17.8109 54.6773 17.8036 52.3582 17.8072C52.2596 17.8072 52.1195 17.7536 52.0915 17.9217C52.0623 18.0971 52.2194 18.0788 52.3107 18.1044C52.7565 18.225 53.0927 18.4698 53.2376 18.9193C53.3594 19.2968 53.3071 19.6793 53.1767 20.0447C52.3826 22.2639 51.5239 24.4599 50.7566 26.7583L50.7554 26.7571ZM81.449 23.1287C81.449 22.2541 81.2663 21.4222 80.8766 20.6354C79.6512 18.1653 76.9022 16.9607 74.3968 17.8011C71.5259 18.7633 69.9401 21.9959 70.9023 24.924C71.8024 27.6621 74.4467 29.2272 77.1787 28.6389C79.6476 28.1066 81.4466 25.7839 81.449 23.1299V23.1287ZM41.9212 26.7193C41.9565 26.9227 41.9723 27.0433 41.9979 27.1615C42.1599 27.9045 42.4912 28.511 43.3097 28.6791C43.9516 28.8106 44.585 28.7205 45.2086 28.5451C45.3084 28.5171 45.3901 28.4708 45.3767 28.3417C45.3596 28.1882 45.2439 28.2248 45.1525 28.2224C44.7518 28.2138 44.5204 27.9775 44.3828 27.6353C44.2622 27.3356 44.2183 27.0202 44.2196 26.6962C44.222 25.181 44.2183 23.6646 44.222 22.1494C44.2232 21.6049 44.1733 21.0678 44.0697 20.5343C43.7579 18.9253 42.8493 17.9984 41.2464 17.6574C40.6995 17.5417 40.1453 17.51 39.5911 17.5466C38.389 17.6282 37.3829 18.1263 36.6107 19.0484C36.1552 19.5928 35.9652 20.2323 36.132 20.9448C36.2989 21.6524 36.8336 21.9691 37.5559 21.7974C38.2721 21.6269 38.5778 21.1421 38.4158 20.421C38.3537 20.1458 38.2623 19.8754 38.2075 19.5989C38.037 18.7524 38.5741 18.0167 39.4304 17.9083C40.5716 17.7634 41.4303 18.3638 41.7653 19.5331C41.9894 20.3175 41.9078 21.1214 41.9407 21.9192C41.9529 22.2018 41.8469 22.2943 41.5935 22.3504C40.49 22.5964 39.378 22.8071 38.3183 23.2237C37.6058 23.5038 36.9079 23.7949 36.3391 24.3345C34.8775 25.723 35.3781 28.1286 37.3378 28.6048C37.97 28.7583 38.6094 28.7899 39.2452 28.6657C40.395 28.4404 41.2635 27.7985 41.9212 26.7145V26.7193ZM66.9718 26.7047C66.5066 25.2151 65.9244 23.7693 65.3945 22.3029C65.0291 21.2883 64.5614 20.3029 64.4737 19.203C64.4274 18.6172 64.604 18.2969 65.1534 18.0947C65.2447 18.0606 65.3495 18.0654 65.3361 17.9193C65.3214 17.767 65.2179 17.7889 65.1217 17.7889C63.654 17.7889 62.1851 17.7889 60.7174 17.7889C60.6236 17.7889 60.5176 17.7634 60.5055 17.9205C60.4933 18.0667 60.5968 18.0776 60.6857 18.102C61.0134 18.1897 61.2436 18.4053 61.4397 18.6659C61.7308 19.052 61.9537 19.4783 62.1254 19.9253C63.2849 22.9533 64.4506 25.9788 65.5809 29.0177C66.0108 30.1748 65.7076 31.2552 65.0035 32.2235C64.6247 32.7448 64.0766 32.8946 63.4567 32.7387C62.8513 32.5865 62.615 32.0286 62.9025 31.4756C63.0097 31.2686 63.1351 31.0664 63.2094 30.8484C63.3848 30.3331 63.1461 29.8484 62.6443 29.645C61.7795 29.2954 60.8197 29.8849 60.7491 30.8106C60.6711 31.8252 61.3922 32.8788 62.4068 33.232C63.4871 33.6084 64.7599 33.2503 65.3214 32.3916C65.6235 31.9287 65.8866 31.4403 66.0632 30.9117C66.8525 28.5597 67.6247 26.2017 68.4371 23.857C68.9389 22.4076 69.4018 20.9387 70.1118 19.5709C70.4407 18.9363 70.8134 18.3151 71.5868 18.1142C71.6758 18.091 71.7415 18.0386 71.7294 17.9302C71.7135 17.7829 71.6015 17.8048 71.5065 17.8048C70.4821 17.8048 69.459 17.8036 68.4347 17.8048C68.3433 17.8048 68.2288 17.7768 68.213 17.929C68.1959 18.0934 68.3104 18.1093 68.4225 18.1178C69.0765 18.169 69.3969 18.7329 69.3372 19.4016C69.2787 20.0544 69.135 20.6902 68.9012 21.3017C68.2593 22.9776 67.6941 24.6792 67.1399 26.3856C67.1046 26.4952 67.1168 26.6402 66.9706 26.7035L66.9718 26.7047ZM88.9288 12.2422C88.852 12.2312 88.8179 12.2227 88.7826 12.2227C86.2041 12.2227 83.6268 12.2263 81.0483 12.2154C80.7901 12.2154 80.7828 12.3213 80.7828 12.5187C80.7889 14.1703 80.7949 15.8207 80.7779 17.4723C80.7755 17.7634 80.8644 17.8121 81.1287 17.8109C83.6329 17.8011 86.1371 17.806 88.6401 17.8036C88.7217 17.8036 88.813 17.8364 88.9056 17.7439C88.4367 16.9315 87.9726 16.1105 87.4915 15.2993C87.3722 15.0984 87.3551 14.951 87.4854 14.7354C87.9751 13.9267 88.4342 13.1009 88.9263 12.2434L88.9288 12.2422ZM45.2001 40.2501C45.2293 40.2453 45.2573 40.2404 45.2865 40.2355C45.3547 40.3329 45.4254 40.4304 45.4924 40.529C46.5362 42.0662 47.591 43.596 48.6129 45.1477C48.8394 45.4924 49.0855 45.6203 49.4789 45.5825C49.6555 45.5655 49.703 45.5216 49.703 45.3487C49.6981 43.2415 49.6957 41.1356 49.7042 39.0285C49.7042 38.8056 49.6214 38.752 49.4253 38.7739C49.34 38.7836 49.2511 38.7885 49.1671 38.7739C48.8577 38.7191 48.809 38.8677 48.8114 39.1417C48.8236 40.6326 48.8187 42.1234 48.8139 43.613C48.8139 43.7092 48.8735 43.8298 48.7481 43.9175C47.7067 42.3707 46.6568 40.8384 45.6434 39.283C45.3949 38.9006 45.1416 38.7203 44.6739 38.7605C44.3925 38.7849 44.334 38.8519 44.3353 39.1174C44.3462 41.0881 44.3414 43.0601 44.3414 45.0308C44.3414 45.5789 44.3426 45.5545 44.8748 45.5838C45.183 45.6008 45.2061 45.4766 45.2049 45.2269C45.1952 43.6995 45.2001 42.1721 45.2001 40.6435C45.2001 40.512 45.2001 40.3805 45.2001 40.2489V40.2501ZM34.7411 42.6995C34.9408 42.6374 35.1077 42.596 35.266 42.5339C35.7289 42.3524 36.0955 42.0649 36.3001 41.5936C36.847 40.3305 36.1673 39.0577 34.8068 38.8458C33.8276 38.6935 32.8373 38.8214 31.8544 38.7702C31.5402 38.7544 31.4987 38.875 31.5 39.1454C31.5097 41.0784 31.5048 43.0126 31.5048 44.9455C31.5048 45.5886 31.5048 45.5728 32.1431 45.5838C32.4062 45.5874 32.4427 45.4863 32.4366 45.2634C32.4232 44.747 32.4256 44.2293 32.4354 43.7117C32.4415 43.395 32.2978 42.9809 32.4951 42.7872C32.6899 42.596 33.1041 42.7568 33.4195 42.7251C33.6619 42.7007 33.7971 42.797 33.9226 42.9992C34.4086 43.7823 34.9116 44.5558 35.4122 45.3292C35.4804 45.4352 35.5169 45.5825 35.6984 45.5777C35.9846 45.5691 36.2721 45.5752 36.6107 45.5752C35.97 44.5899 35.3696 43.6642 34.7423 42.6995H34.7411ZM61.0182 42.7105C61.0767 42.6813 61.1181 42.6532 61.1644 42.6411C62.3203 42.3207 62.7953 41.6788 62.7271 40.5315C62.6711 39.6009 62.0426 38.9761 60.9549 38.8287C60.0122 38.7008 59.0597 38.8129 58.1121 38.7702C57.8271 38.7569 57.7686 38.847 57.7698 39.1186C57.782 41.0759 57.7759 43.0333 57.7759 44.9906C57.7759 45.5838 57.7759 45.5716 58.3837 45.5813C58.6212 45.585 58.704 45.5265 58.6943 45.278C58.6748 44.7616 58.6821 44.244 58.6906 43.7275C58.6955 43.4108 58.5542 42.9979 58.7479 42.8018C58.9586 42.5875 59.3788 42.7616 59.7052 42.7263C59.9293 42.702 60.0585 42.7897 60.1778 42.9833C60.6699 43.7762 61.1815 44.5594 61.6881 45.3438C61.7576 45.4522 61.8026 45.5874 61.9817 45.5789C62.2594 45.5667 62.5383 45.5752 62.8769 45.5752C62.2375 44.5899 61.6309 43.6557 61.0182 42.7105ZM23.885 45.5752C24.1091 45.5752 24.2821 45.557 24.4514 45.5789C24.7169 45.6142 24.8399 45.507 24.9179 45.2561C25.0385 44.87 25.2236 44.5046 25.3381 44.1173C25.4209 43.8359 25.5719 43.7738 25.8448 43.7799C26.6206 43.7982 27.3977 43.7957 28.1736 43.7799C28.4294 43.775 28.578 43.831 28.6571 44.0978C28.7534 44.4267 28.9349 44.7312 29.0152 45.0625C29.1175 45.4827 29.3319 45.6191 29.7607 45.5862C30.0712 45.563 30.1248 45.5192 30.0079 45.222C29.2454 43.2805 28.5 41.3329 27.7473 39.389C27.5061 38.7666 27.5037 38.78 26.8167 38.7666C26.5817 38.7617 26.4696 38.836 26.3868 39.054C25.7169 40.8201 25.036 42.5814 24.3588 44.345C24.2053 44.7433 24.0519 45.1404 23.885 45.5728V45.5752ZM51.6798 42.1575C51.6798 43.205 51.6871 44.2513 51.6737 45.2987C51.6713 45.5326 51.7395 45.5825 51.9624 45.5813C53.245 45.5704 54.5275 45.563 55.8088 45.585C56.1341 45.5911 56.1365 45.4412 56.1219 45.2123C56.1085 44.993 56.2071 44.7531 55.8003 44.7653C54.815 44.7957 53.8272 44.7701 52.8418 44.7787C52.6408 44.7811 52.5629 44.736 52.569 44.518C52.5836 43.9273 52.5848 43.3353 52.569 42.7446C52.5629 42.5168 52.6238 42.4535 52.854 42.4584C53.6554 42.473 54.4581 42.4413 55.2583 42.4742C55.6237 42.4888 55.586 42.2939 55.5799 42.0674C55.5738 41.8542 55.6469 41.6362 55.2681 41.652C54.48 41.6849 53.6895 41.652 52.9015 41.6679C52.6554 41.6727 52.5556 41.6265 52.569 41.3536C52.5933 40.8616 52.5897 40.3683 52.569 39.8762C52.5592 39.6277 52.6408 39.5717 52.8771 39.5754C53.8515 39.5887 54.8259 39.5656 55.7991 39.5887C56.1073 39.5961 56.1523 39.473 56.1231 39.2246C56.0987 39.0175 56.2278 38.7605 55.8137 38.769C54.5324 38.7934 53.2486 38.7861 51.9673 38.7702C51.6993 38.7666 51.6737 38.8713 51.6762 39.0906C51.6847 40.1125 51.6798 41.1356 51.6798 42.1575ZM18.8291 42.1697C18.8291 43.1063 18.8291 44.043 18.8291 44.9784C18.8291 45.5801 18.8291 45.5643 19.4235 45.5813C19.6951 45.5898 19.745 45.4973 19.7402 45.25C19.7243 44.5107 19.7438 43.7714 19.7292 43.032C19.7243 42.7836 19.8084 42.7202 20.0447 42.7214C20.6731 42.7263 21.3028 42.7531 21.9301 42.691C23.019 42.5826 23.7486 41.8713 23.7839 40.8871C23.8241 39.73 23.2358 39.0078 22.0629 38.8385C21.0459 38.6911 20.0191 38.808 18.9972 38.7763C18.7609 38.769 18.834 38.9481 18.8327 39.065C18.8279 40.1003 18.8303 41.1356 18.8303 42.1697H18.8291ZM39.7373 42.5619C39.7373 43.462 39.7483 44.3609 39.7312 45.261C39.7263 45.5265 39.8116 45.6179 40.0625 45.5764C40.0869 45.5728 40.1112 45.5764 40.1368 45.5764C40.4795 45.5764 40.6508 45.4116 40.6508 45.0819C40.6508 43.3694 40.6569 41.6557 40.6447 39.9432C40.6423 39.6704 40.6898 39.5571 40.9979 39.5729C41.5387 39.6009 42.0844 39.5559 42.6252 39.59C42.9748 39.6119 42.9601 39.4341 42.9565 39.1941C42.9528 38.9542 42.993 38.7629 42.6167 38.769C41.0625 38.7934 39.5083 38.7788 37.9542 38.7788C37.4134 38.7788 37.428 38.7788 37.4219 39.3025C37.4195 39.5388 37.4986 39.5912 37.7191 39.5863C38.2989 39.5717 38.8786 39.5936 39.4584 39.5754C39.691 39.568 39.7471 39.6423 39.7434 39.8652C39.7312 40.7641 39.7385 41.6642 39.7385 42.5643L39.7373 42.5619ZM58.3788 16.4418C59.1681 16.4443 59.8343 15.7878 59.8222 15.0204C59.81 14.2543 59.1328 13.5905 58.3654 13.5941C57.6103 13.5966 56.966 14.2458 56.9538 15.0131C56.9416 15.7999 57.581 16.4406 58.3776 16.4418H58.3788Z" fill="#8895A7"/>
<path d="M3.79659 0.104766C3.79659 20.069 3.79659 40.0321 3.79659 59.9964H0.315538C0.315538 40.2172 0.315538 20.4393 0.315538 0.660175C0.315538 0.561517 0.325282 0.461641 0.313102 0.364201C0.291178 0.160794 0.359386 0.085278 0.577409 0.088932C1.65047 0.103548 2.72353 0.101112 3.79659 0.105984V0.104766Z" fill="#5A6575"/>
<path d="M3.79655 0.104742C2.72349 0.101088 1.65043 0.102306 0.577366 0.0876901C0.360562 0.0852541 0.291136 0.16077 0.314278 0.362959C0.32524 0.460399 0.316714 0.560275 0.316714 0.658933C0.316714 20.4381 0.316714 40.216 0.316714 59.9951C0.293572 59.9793 0.239979 60.0329 0.242415 59.9586C0.246069 59.8599 0.242415 59.7613 0.242415 59.6626C0.242415 39.8932 0.242415 20.1226 0.235107 0.351997C0.235107 0.0742921 0.297226 0.012174 0.57493 0.012174C47.8797 0.019482 95.1845 0.019482 142.489 0.023136C142.598 0.023136 142.74 -0.0621241 142.823 0.0925621C101.809 0.0925621 60.7954 0.0925621 19.7816 0.0925621C14.588 0.0925621 9.3957 0.0925621 4.20214 0.0925621C4.06694 0.0925621 3.93174 0.0998702 3.79655 0.103524V0.104742Z" fill="#FEFEFE"/>
<path d="M22.6634 22.9922C23.8692 22.7961 24.8424 23.0434 25.6341 23.8692C25.8497 24.0933 26.0032 24.3613 26.1652 24.6219C26.6597 25.4148 27.153 26.209 27.6463 27.0031C27.9057 27.4197 28.2492 27.7449 28.684 27.9775C29.7826 28.5646 30.8679 28.0165 31.0323 26.7827C31.0567 26.6 31.0591 26.4136 31.0591 26.2297C31.0603 22.4709 31.0591 18.7122 31.0603 14.9522C31.0603 14.6672 31.0506 14.3846 30.9531 14.1142C30.7972 13.6855 30.5475 13.353 30.0567 13.2848C29.9568 13.2714 29.8606 13.275 29.863 13.1264C29.8655 12.9924 29.9434 12.9729 30.0494 12.9498C31.1553 12.7123 32.2588 12.4699 33.394 12.2227C33.394 12.3993 33.394 12.5466 33.394 12.6928C33.394 17.1909 33.394 21.6902 33.394 26.1883C33.394 26.5451 33.4025 26.8996 33.5243 27.2443C33.7192 27.7948 34.0822 28.1285 34.6705 28.2004C34.7557 28.2114 34.8398 28.2321 34.925 28.2467C34.9908 28.2589 35.0371 28.2844 35.0359 28.3636C35.0359 28.4684 34.9665 28.4769 34.8885 28.4781C34.802 28.4781 34.7156 28.4781 34.6291 28.4781C32.1249 28.4781 29.6206 28.4635 27.1152 28.4866C26.2346 28.4952 25.5951 28.1419 25.1445 27.416C24.5087 26.3917 23.8839 25.36 23.2554 24.332C23.0495 23.9959 22.8388 23.6634 22.6403 23.3235C22.5635 23.1932 22.5014 23.1725 22.3967 23.2894C22.1336 23.583 21.8668 23.8728 21.5989 24.1627C21.5343 24.2322 21.5222 24.3138 21.5234 24.4015C21.5331 25.2273 21.4795 26.0543 21.5648 26.8764C21.6269 27.4733 21.8595 27.9726 22.5112 28.1432C22.6135 28.17 22.6939 28.2102 22.6744 28.3429C22.6512 28.5013 22.5294 28.4501 22.4442 28.4501C21.0374 28.4538 19.6318 28.4538 18.225 28.4501C18.1398 28.4501 18.0167 28.4988 18.0046 28.3344C17.996 28.2272 18.0448 28.1797 18.1398 28.1517C18.9631 27.9105 19.1678 27.2577 19.1897 26.5159C19.214 25.6913 19.1958 24.8643 19.1958 24.0385C19.1958 21.0069 19.1945 17.9753 19.197 14.9425C19.197 14.5259 19.1263 14.1337 18.8827 13.7878C18.7232 13.5625 18.5246 13.3834 18.2433 13.3189C18.1276 13.2921 17.996 13.3006 18.0033 13.1118C18.0107 12.912 18.1678 12.9547 18.2701 12.9315C19.2554 12.7111 20.2445 12.5113 21.2262 12.2775C21.5039 12.2117 21.5282 12.3006 21.527 12.5332C21.5197 13.9875 21.5234 15.4418 21.5234 16.8961C21.5234 19.0289 21.5234 21.1604 21.5234 23.2931C21.5234 23.4222 21.5234 23.5501 21.5234 23.7925C22.1604 23.0507 22.7207 22.4039 23.2724 21.7499C23.7876 21.1384 24.3589 20.5721 24.762 19.8729C24.8911 19.6476 24.9959 19.4137 25.0373 19.1555C25.1116 18.689 24.9021 18.3687 24.5038 18.1604C24.3845 18.0983 24.2761 18.0484 24.3175 17.8937C24.354 17.7597 24.4782 17.8035 24.5684 17.8035C25.7401 17.8011 26.913 17.8011 28.0847 17.8035C28.1846 17.8035 28.3223 17.7536 28.3466 17.9241C28.3637 18.0447 28.2894 18.0959 28.1858 18.1361C26.572 18.767 25.4027 19.9655 24.27 21.2091C23.7572 21.7718 23.2493 22.3382 22.6622 22.9886L22.6634 22.9922Z" fill="#FEFEFE"/>
<path d="M50.7555 26.7571C51.524 24.4587 52.3827 22.2626 53.1756 20.0434C53.306 19.6792 53.3583 19.2968 53.2365 18.918C53.0916 18.4685 52.7554 18.2237 52.3096 18.1031C52.2183 18.0788 52.0599 18.0971 52.0904 17.9204C52.1184 17.7524 52.2585 17.806 52.3571 17.806C54.6762 17.8035 56.9965 17.8096 59.3156 17.7962C59.6189 17.795 59.6115 17.9375 59.6115 18.1543C59.6067 20.8656 59.6091 23.5781 59.6079 26.2893C59.6079 26.5488 59.614 26.8058 59.6785 27.0603C59.804 27.5646 60.0379 27.9763 60.5726 28.1383C60.6761 28.1699 60.7528 28.2126 60.7358 28.3417C60.7151 28.4976 60.5945 28.4525 60.5068 28.4525C59.1122 28.4549 57.7188 28.4549 56.3242 28.4537C56.2304 28.4537 56.1183 28.4805 56.1 28.3319C56.0842 28.1955 56.1829 28.1712 56.2767 28.1383C56.9356 27.9044 57.1877 27.3721 57.2377 26.7388C57.2827 26.1627 57.2657 25.5817 57.2657 25.0019C57.2681 23.1164 57.2681 21.2298 57.2657 19.3443C57.2657 18.3943 56.6859 17.9278 55.7493 18.1178C54.6372 18.3431 54.0952 19.186 53.6957 20.1153C53.2743 21.0958 52.9357 22.1116 52.58 23.1189C51.9869 24.7985 51.4022 26.4806 50.831 28.1675C50.7518 28.3989 50.6458 28.472 50.4132 28.4586C50.0807 28.4391 49.7457 28.4379 49.4144 28.4586C49.1745 28.4732 49.0795 28.388 49.0064 28.159C48.1441 25.494 47.166 22.8704 46.1478 20.2602C45.9456 19.7426 45.7178 19.2383 45.3731 18.7998C45.1429 18.5075 44.8822 18.2457 44.5132 18.1275C44.4048 18.0922 44.3451 18.0386 44.3597 17.9156C44.378 17.756 44.501 17.806 44.5863 17.806C46.054 17.8035 47.5229 17.8035 48.9906 17.806C49.0831 17.806 49.2001 17.7743 49.2232 17.9192C49.2476 18.0764 49.127 18.091 49.0198 18.1263C48.5119 18.2992 48.3548 18.5185 48.3499 19.0483C48.345 19.6244 48.518 20.1652 48.7031 20.7011C49.3925 22.6962 50.1781 24.6584 50.7542 26.7558L50.7555 26.7571Z" fill="#FEFEFE"/>
<path d="M81.4491 23.1286C81.4479 25.7826 79.6477 28.1054 77.1788 28.6376C74.4456 29.2272 71.8013 27.662 70.9024 24.9227C69.9402 21.9947 71.526 18.7621 74.3969 17.7999C76.9023 16.9607 79.6513 18.164 80.8766 20.6342C81.2676 21.421 81.4503 22.2529 81.4491 23.1274V23.1286ZM73.2276 23.058C73.2154 23.7888 73.2836 24.5123 73.4651 25.2175C73.7136 26.1846 74.0108 27.1395 74.7574 27.863C75.4736 28.5573 76.381 28.5926 77.1605 27.9726C77.6855 27.5548 78.0204 26.997 78.2628 26.3856C78.9485 24.6487 79.0107 22.868 78.5892 21.0617C78.3785 20.1567 78.0521 19.2944 77.4297 18.583C76.6623 17.7073 75.5869 17.6586 74.7269 18.4442C74.4334 18.7121 74.2117 19.0349 74.0278 19.3869C73.4225 20.5379 73.2483 21.7815 73.2276 23.0592V23.058Z" fill="#FEFEFE"/>
<path d="M41.9212 26.7193C41.2635 27.8033 40.395 28.444 39.2452 28.6706C38.6094 28.7948 37.97 28.7631 37.3378 28.6097C35.3768 28.1322 34.8775 25.7279 36.3391 24.3393C36.9079 23.7985 37.6046 23.5087 38.3183 23.2285C39.378 22.812 40.49 22.6012 41.5935 22.3552C41.8469 22.2992 41.9528 22.2066 41.9407 21.924C41.9078 21.1262 41.9906 20.3224 41.7653 19.538C41.4303 18.3687 40.5716 17.7694 39.4304 17.9132C38.5741 18.0216 38.037 18.7572 38.2075 19.6037C38.2635 19.8802 38.3536 20.1506 38.4158 20.4259C38.5778 21.1457 38.272 21.6305 37.5559 21.8022C36.8336 21.9752 36.2989 21.6585 36.132 20.9496C35.9639 20.2371 36.1539 19.5977 36.6107 19.0532C37.3829 18.13 38.389 17.6318 39.5911 17.5514C40.1453 17.5137 40.6995 17.5453 41.2464 17.6622C42.8493 18.0021 43.7579 18.929 44.0697 20.5392C44.1733 21.0727 44.2232 21.6098 44.222 22.1542C44.2183 23.6694 44.222 25.1858 44.2195 26.701C44.2195 27.025 44.2622 27.3405 44.3828 27.6401C44.5204 27.9824 44.7518 28.2187 45.1525 28.2272C45.2439 28.2296 45.3596 28.1919 45.3766 28.3466C45.3913 28.4757 45.3084 28.522 45.2086 28.55C44.5849 28.7254 43.9516 28.8155 43.3097 28.684C42.4912 28.5159 42.1599 27.9093 41.9979 27.1663C41.9723 27.0482 41.9565 26.9276 41.9212 26.7242V26.7193ZM41.9334 24.2248C41.9334 23.7693 41.9297 23.3138 41.9358 22.8582C41.9382 22.695 41.9248 22.5927 41.7165 22.6731C40.8238 23.0178 39.9042 23.2955 39.0747 23.7912C38.5668 24.0945 38.2087 24.5123 38.0236 25.0714C37.6935 26.0713 38.0991 27.1797 38.9103 27.5098C40.1867 28.0287 41.8773 26.9373 41.9297 25.5549C41.9468 25.1128 41.9321 24.6682 41.9334 24.2261V24.2248Z" fill="#FEFEFE"/>
<path d="M66.9719 26.7047C67.118 26.6413 67.1059 26.4964 67.1412 26.3868C67.6954 24.6804 68.2617 22.9788 68.9024 21.3028C69.1363 20.6914 69.2812 20.0556 69.3384 19.4028C69.3981 18.7341 69.0778 18.1701 68.4237 18.119C68.3117 18.1105 68.1972 18.0946 68.2142 17.9302C68.2301 17.7779 68.3446 17.806 68.4359 17.806C69.4603 17.8035 70.4834 17.8047 71.5077 17.806C71.6027 17.806 71.7148 17.784 71.7306 17.9314C71.7428 18.041 71.677 18.0922 71.5881 18.1153C70.8147 18.3163 70.442 18.9375 70.1131 19.5721C69.403 20.9399 68.9402 22.4088 68.4384 23.8582C67.6259 26.2029 66.8537 28.5609 66.0645 30.9129C65.8866 31.4415 65.6248 31.9299 65.3227 32.3927C64.7612 33.2514 63.4884 33.6095 62.408 33.2332C61.3934 32.8799 60.6736 31.8264 60.7503 30.8118C60.821 29.8873 61.7808 29.2966 62.6455 29.6461C63.1474 29.8496 63.3861 30.3343 63.2107 30.8495C63.1364 31.0688 63.0109 31.2697 62.9037 31.4768C62.6163 32.0298 62.8538 32.5888 63.4579 32.7399C64.0767 32.8958 64.626 32.746 65.0048 32.2247C65.7088 31.2563 66.0133 30.176 65.5821 29.0189C64.4518 25.98 63.2862 22.9544 62.1267 19.9265C61.9549 19.4795 61.732 19.0532 61.4409 18.6671C61.2448 18.4064 61.0134 18.1921 60.687 18.1031C60.5981 18.0788 60.4945 18.069 60.5067 17.9217C60.5189 17.7645 60.6249 17.7901 60.7186 17.7901C62.1863 17.7889 63.6553 17.7901 65.1229 17.7901C65.2192 17.7901 65.3239 17.7682 65.3373 17.9204C65.3507 18.0678 65.246 18.063 65.1546 18.0958C64.6041 18.298 64.4275 18.6184 64.475 19.2042C64.5627 20.3041 65.0304 21.2894 65.3958 22.304C65.9244 23.7693 66.5078 25.2163 66.9731 26.7059L66.9719 26.7047Z" fill="#FEFEFE"/>
<path d="M88.9288 12.2421C88.4367 13.0996 87.9776 13.9266 87.4879 14.7342C87.3564 14.951 87.3746 15.0971 87.494 15.2981C87.9751 16.1093 88.4404 16.9302 88.9081 17.7426C88.8143 17.8364 88.723 17.8023 88.6426 17.8023C86.1384 17.8048 83.6342 17.7999 81.1312 17.8096C80.8656 17.8096 80.7767 17.7621 80.7804 17.471C80.7974 15.8194 80.7913 14.169 80.7853 12.5174C80.7853 12.3201 80.7926 12.2129 81.0508 12.2141C83.6293 12.2251 86.2066 12.2214 88.7851 12.2214C88.8204 12.2214 88.8545 12.23 88.9313 12.2409L88.9288 12.2421Z" fill="#FEFEFE"/>
<path d="M45.2001 40.2501C45.2001 40.3816 45.2001 40.5132 45.2001 40.6447C45.2001 42.1721 45.1953 43.6995 45.205 45.228C45.2062 45.4777 45.1831 45.602 44.8749 45.5849C44.3427 45.5557 44.3414 45.5801 44.3414 45.032C44.3414 43.0612 44.3463 41.0893 44.3353 39.1186C44.3341 38.853 44.3914 38.786 44.674 38.7617C45.1417 38.7215 45.395 38.9017 45.6435 39.2842C46.6569 40.8396 47.7068 42.3718 48.7482 43.9187C48.8736 43.831 48.8139 43.7104 48.8139 43.6142C48.8188 42.1234 48.8237 40.6325 48.8115 39.1429C48.8091 38.8689 48.8578 38.7203 49.1672 38.7751C49.2512 38.7897 49.3401 38.786 49.4254 38.7751C49.6215 38.7519 49.7043 38.8055 49.7043 39.0296C49.6958 41.1368 49.697 43.2427 49.7031 45.3498C49.7031 45.5228 49.6556 45.5667 49.479 45.5837C49.0856 45.6215 48.8395 45.4936 48.613 45.1489C47.5923 43.5971 46.5363 42.0673 45.4924 40.5302C45.4255 40.4316 45.356 40.3341 45.2866 40.2367C45.2574 40.2415 45.2294 40.2464 45.2001 40.2513V40.2501Z" fill="#FEFEFE"/>
<path d="M34.7411 42.6995C35.3672 43.6629 35.9689 44.5898 36.6095 45.5752C36.2709 45.5752 35.9847 45.5691 35.6973 45.5776C35.517 45.5825 35.4805 45.4351 35.411 45.3292C34.9104 44.5557 34.4074 43.7823 33.9214 42.9991C33.796 42.7969 33.6608 42.6995 33.4184 42.7251C33.1029 42.758 32.6888 42.596 32.4939 42.7872C32.2966 42.9809 32.4403 43.395 32.4342 43.7117C32.4245 44.2281 32.4221 44.7457 32.4354 45.2634C32.4415 45.4863 32.405 45.5874 32.1419 45.5837C31.5037 45.574 31.5037 45.5898 31.5037 44.9455C31.5037 43.0125 31.5085 41.0783 31.4988 39.1454C31.4976 38.875 31.539 38.7544 31.8532 38.7702C32.8362 38.8202 33.8276 38.6923 34.8057 38.8457C36.1662 39.0577 36.8458 40.3317 36.299 41.5935C36.0943 42.0649 35.7277 42.3524 35.2649 42.5338C35.1065 42.596 34.9397 42.6374 34.7399 42.6995H34.7411ZM32.433 40.7531C32.433 41.0735 32.4306 41.3926 32.433 41.7129C32.433 41.8164 32.3977 41.9529 32.5792 41.9456C33.2917 41.9175 34.0115 42.0308 34.7143 41.8579C35.2369 41.7287 35.5414 41.339 35.5608 40.8299C35.5876 40.121 35.1845 39.6496 34.4354 39.596C33.8349 39.5534 33.2284 39.5838 32.6255 39.5692C32.4476 39.5656 32.4269 39.6496 32.4306 39.7933C32.4367 40.1137 32.433 40.4328 32.433 40.7531Z" fill="#FEFEFE"/>
<path d="M61.0183 42.7105C61.631 43.6556 62.2375 44.5886 62.877 45.5752C62.5384 45.5752 62.2607 45.5667 61.9818 45.5789C61.8027 45.5862 61.7577 45.4522 61.6882 45.3438C61.1815 44.5594 60.6712 43.7762 60.1779 42.9833C60.0585 42.7909 59.9294 42.7032 59.7053 42.7263C59.3789 42.7616 58.9587 42.5874 58.748 42.8018C58.5543 42.9979 58.6968 43.4108 58.6907 43.7275C58.6822 44.2439 58.6749 44.7616 58.6944 45.278C58.7029 45.5253 58.6213 45.585 58.3838 45.5813C57.776 45.5716 57.776 45.5837 57.776 44.9906C57.776 43.0332 57.7821 41.0759 57.7699 39.1186C57.7687 38.8482 57.8272 38.758 58.1122 38.7702C59.0586 38.8129 60.011 38.7008 60.955 38.8287C62.0439 38.9761 62.6724 39.6009 62.7272 40.5315C62.7954 41.6788 62.3204 42.3207 61.1645 42.641C61.1194 42.6532 61.078 42.6825 61.0183 42.7105ZM58.6883 40.758C58.6883 41.0771 58.6871 41.3962 58.6883 41.7166C58.6883 41.8225 58.6627 41.9529 58.8405 41.9456C59.5397 41.9188 60.2449 42.0235 60.9367 41.8688C61.4994 41.7434 61.8161 41.3512 61.8344 40.8067C61.8575 40.1003 61.4215 39.6314 60.6505 39.5875C60.0744 39.5546 59.4946 39.5802 58.9173 39.568C58.7407 39.5644 58.6785 39.6216 58.6846 39.7994C58.6956 40.1186 58.6883 40.4377 58.6883 40.7568V40.758Z" fill="#FEFEFE"/>
<path d="M23.885 45.5752C24.0519 45.1428 24.2066 44.7457 24.3588 44.3474C25.036 42.585 25.7169 40.8225 26.3868 39.0564C26.4696 38.8384 26.5804 38.7653 26.8167 38.769C27.5037 38.7824 27.5061 38.769 27.7473 39.3914C28.5 41.3365 29.2454 43.2841 30.0079 45.2244C30.1248 45.5216 30.0712 45.5654 29.7607 45.5886C29.3307 45.6203 29.1175 45.4838 29.0152 45.0648C28.9348 44.7335 28.7534 44.429 28.6571 44.1002C28.5792 43.8334 28.4294 43.7774 28.1736 43.7823C27.3977 43.7981 26.6206 43.7993 25.8448 43.7823C25.5719 43.7762 25.4221 43.8383 25.3381 44.1197C25.2236 44.507 25.0385 44.8724 24.9179 45.2585C24.8387 45.5094 24.7169 45.6166 24.4514 45.5813C24.2833 45.5581 24.1091 45.5776 23.885 45.5776V45.5752ZM25.7827 42.9735H28.2138C27.8094 41.9261 27.4136 40.9005 26.9909 39.8043C26.5768 40.8907 26.187 41.9139 25.7827 42.9735Z" fill="#FEFEFE"/>
<path d="M51.6798 42.1575C51.6798 41.1356 51.6847 40.1125 51.6762 39.0906C51.6737 38.8713 51.7005 38.7666 51.9673 38.7702C53.2498 38.7861 54.5324 38.7922 55.8137 38.769C56.2278 38.7617 56.0987 39.0187 56.1231 39.2245C56.1523 39.473 56.1072 39.596 55.7991 39.5887C54.8259 39.5656 53.8515 39.5887 52.8771 39.5753C52.6408 39.5717 52.5592 39.6277 52.569 39.8762C52.5897 40.3683 52.5921 40.8628 52.569 41.3536C52.5556 41.6277 52.6554 41.6727 52.9015 41.6679C53.6907 41.652 54.48 41.6849 55.268 41.652C55.6468 41.6362 55.5738 41.8542 55.5799 42.0674C55.5859 42.2939 55.6249 42.4888 55.2583 42.4742C54.4581 42.4413 53.6554 42.4742 52.854 42.4583C52.6238 42.4535 52.5629 42.5168 52.569 42.7446C52.586 43.3353 52.5848 43.9273 52.569 44.518C52.5629 44.736 52.6408 44.7799 52.8418 44.7786C53.8284 44.7689 54.8149 44.7945 55.8003 44.7652C56.2059 44.7531 56.1085 44.993 56.1219 45.2122C56.1353 45.4412 56.134 45.591 55.8088 45.585C54.5263 45.563 53.2437 45.5703 51.9624 45.5813C51.7383 45.5837 51.6701 45.5326 51.6737 45.2987C51.6871 44.2525 51.6798 43.205 51.6798 42.1575Z" fill="#FEFEFE"/>
<path d="M18.8291 42.1696C18.8291 41.1343 18.8267 40.099 18.8316 39.065C18.8316 38.948 18.7597 38.7702 18.996 38.7763C20.0179 38.8067 21.0447 38.691 22.0617 38.8384C23.2346 39.0089 23.8229 39.73 23.7827 40.8871C23.7486 41.8724 23.0178 42.5838 21.9289 42.6909C21.3017 42.7531 20.672 42.7263 20.0435 42.7214C19.8072 42.7202 19.7231 42.7835 19.728 43.032C19.7439 43.7713 19.7231 44.5106 19.739 45.25C19.7439 45.4972 19.6939 45.5898 19.4223 45.5813C18.8279 45.5642 18.8279 45.5813 18.8279 44.9784C18.8279 44.0417 18.8279 43.1051 18.8279 42.1696H18.8291ZM19.7341 40.7714C19.7341 41.0905 19.7353 41.4108 19.7341 41.7299C19.7341 41.8493 19.7378 41.9528 19.9034 41.9455C20.5904 41.9163 21.2834 42.0198 21.9643 41.8712C22.3674 41.7835 22.6853 41.574 22.8254 41.1538C23.0909 40.3597 22.6086 39.6484 21.7255 39.5899C21.1616 39.5534 20.5928 39.5899 20.0289 39.5656C19.7658 39.5546 19.7195 39.6606 19.7317 39.8859C19.7475 40.1806 19.7353 40.4754 19.7353 40.7714H19.7341Z" fill="#FEFEFE"/>
<path d="M39.7374 42.5619C39.7374 41.6618 39.73 40.7629 39.7422 39.8628C39.7447 39.6399 39.6898 39.5656 39.4572 39.5729C38.8774 39.5899 38.2977 39.5692 37.7179 39.5838C37.4974 39.5887 37.4183 39.5363 37.4207 39.3C37.4268 38.7763 37.4122 38.7763 37.953 38.7763C39.5071 38.7763 41.0613 38.7909 42.6155 38.7666C42.9919 38.7605 42.9517 38.9517 42.9553 39.1916C42.959 39.4316 42.9736 39.6106 42.624 39.5875C42.0832 39.5522 41.5376 39.5985 40.9968 39.5704C40.6886 39.5546 40.6423 39.6679 40.6435 39.9407C40.6557 41.6532 40.6496 43.367 40.6496 45.0795C40.6496 45.4099 40.4783 45.5748 40.1356 45.574C40.1113 45.574 40.0857 45.5703 40.0613 45.574C39.8092 45.6166 39.7252 45.5253 39.73 45.2585C39.7471 44.3596 39.7361 43.4595 39.7361 42.5594L39.7374 42.5619Z" fill="#FEFEFE"/>
<path d="M58.3788 16.4418C57.5823 16.4394 56.9428 15.7987 56.955 15.0131C56.966 14.2458 57.6115 13.5978 58.3667 13.5941C59.134 13.5917 59.8112 14.2555 59.8234 15.0204C59.8356 15.7877 59.1693 16.443 58.3801 16.4418H58.3788Z" fill="#FEFEFE"/>
<path d="M89.8959 17.6233C89.93 17.5539 89.8678 17.4442 89.9848 17.4053C90.0676 17.4698 90.0116 17.56 90.0225 17.6355C90.025 17.6525 90.0639 17.739 89.9823 17.6988C89.9531 17.6842 89.9629 17.6038 89.891 17.6196L89.8946 17.6233H89.8959Z" fill="#5A6575"/>
<path d="M89.8922 17.6196C89.8703 17.6671 89.8959 17.7414 89.824 17.7609C89.7851 17.7719 89.757 17.7439 89.7656 17.7037C89.779 17.633 89.8387 17.6257 89.8971 17.6245L89.8935 17.6208L89.8922 17.6196Z" fill="#5A6575"/>
<path d="M73.2276 23.058C73.2483 21.7816 73.4224 20.5368 74.0278 19.3858C74.2129 19.035 74.4346 18.711 74.7269 18.443C75.5868 17.6574 76.6623 17.7061 77.4297 18.5819C78.0521 19.2932 78.3785 20.1543 78.5892 21.0605C79.0094 22.8656 78.9485 24.6463 78.2628 26.3844C78.0216 26.9958 77.6867 27.5537 77.1605 27.9714C76.381 28.5926 75.4736 28.5573 74.7574 27.8618C74.0107 27.1383 73.7135 26.1834 73.4651 25.2163C73.2836 24.5111 73.2154 23.7876 73.2276 23.0568V23.058Z" fill="#8895A7"/>
<path d="M41.9323 24.2249C41.9323 24.6682 41.9457 25.1116 41.9298 25.5537C41.8774 26.9361 40.1869 28.0275 38.9104 27.5086C38.0992 27.1785 37.6936 26.0714 38.0237 25.0702C38.2088 24.5099 38.5669 24.0933 39.0748 23.79C39.9043 23.2943 40.8239 23.0166 41.7167 22.6719C41.9249 22.5915 41.9383 22.6938 41.9359 22.8571C41.9298 23.3126 41.9335 23.7681 41.9335 24.2236L41.9323 24.2249Z" fill="#8895A7"/>
<path d="M32.433 40.7531C32.433 40.4328 32.4379 40.1137 32.4306 39.7933C32.4282 39.6496 32.4477 39.5656 32.6255 39.5692C33.2284 39.5826 33.835 39.5522 34.4354 39.596C35.1845 39.6496 35.5877 40.1197 35.5609 40.8298C35.5414 41.339 35.2369 41.7287 34.7144 41.8578C34.0104 42.032 33.2917 41.9175 32.5792 41.9455C32.3977 41.9528 32.4343 41.8164 32.433 41.7129C32.4306 41.3926 32.433 41.0734 32.433 40.7531Z" fill="#8895A7"/>
<path d="M58.6883 40.758C58.6883 40.4389 58.6956 40.1186 58.6846 39.8007C58.6785 39.6241 58.7406 39.5656 58.9172 39.5693C59.4946 39.5814 60.0743 39.5559 60.6505 39.5887C61.4215 39.6326 61.8575 40.1015 61.8344 40.808C61.8173 41.3524 61.5006 41.7446 60.9367 41.8701C60.2449 42.0235 59.5396 41.92 58.8405 41.9468C58.6627 41.9541 58.6895 41.8238 58.6883 41.7178C58.6858 41.3987 58.6883 41.0796 58.6883 40.7592V40.758Z" fill="#8895A7"/>
<path d="M25.7827 42.9736C26.1871 41.9139 26.5769 40.8908 26.991 39.8043C27.4136 40.9005 27.8095 41.9249 28.2138 42.9736H25.7827Z" fill="#8895A7"/>
<path d="M19.734 40.7714C19.734 40.4767 19.745 40.1807 19.7304 39.8859C19.7182 39.6606 19.7645 39.5546 20.0276 39.5656C20.5927 39.5899 21.1615 39.5534 21.7243 39.59C22.6073 39.6484 23.0896 40.3597 22.8241 41.1539C22.684 41.5741 22.3661 41.7836 21.963 41.8713C21.2821 42.0199 20.5891 41.9163 19.9021 41.9456C19.7365 41.9529 19.7328 41.8493 19.7328 41.73C19.7353 41.4109 19.7328 41.0905 19.7328 40.7714H19.734Z" fill="#8895A7"/>
</g>
<defs>
<clipPath id="clip0_1711_148">
<rect width="142.592" height="60" fill="white" transform="translate(0.235107)"/>
</clipPath>
</defs>
</svg>
