<svg width="131" height="52" viewBox="0 0 131 52" fill="none" xmlns="http://www.w3.org/2000/svg">
<path d="M48.3218 0.854004H53.2717L61.6906 16.0808L70.1062 0.854004H74.9527V25.8906H70.9101V6.69453L63.5285 19.9733H59.7493L52.3578 6.69453V25.8906H48.3218V0.854004Z" fill="#8895A7"/>
<path d="M87.9714 26.3142C86.2469 26.3509 84.5425 25.9239 83.0381 25.0767C81.6339 24.2595 80.4865 23.0687 79.7226 21.6378C78.9087 20.0834 78.5018 18.3489 78.5352 16.5944C78.4985 14.8266 78.8954 13.0788 79.6926 11.501C80.4264 10.0701 81.5438 8.86931 82.9214 8.03876C84.3557 7.18486 86.0001 6.75123 87.6679 6.78459C90.93 6.6545 93.9354 8.5591 95.2062 11.5678C95.9334 13.2489 96.2869 15.0667 96.2436 16.898V18.002H82.5378C82.7146 19.3829 83.3717 20.6571 84.389 21.6044C85.4197 22.4983 86.7506 22.9686 88.1148 22.9186C89.1755 22.942 90.2329 22.7585 91.2236 22.3782C92.1342 21.9947 92.9647 21.4443 93.6719 20.7505L95.8133 23.3822C93.6852 25.3402 90.87 26.3909 87.9714 26.3142ZM90.9234 11.4877C90.0395 10.6038 88.8253 10.1335 87.5745 10.1902C86.327 10.1568 85.1162 10.6338 84.2256 11.5111C83.285 12.4817 82.6846 13.7292 82.5178 15.0701H92.371C92.3343 13.7392 91.824 12.465 90.9267 11.4777L90.9234 11.4877Z" fill="#8895A7"/>
<path d="M101.15 10.5403H97.4276V7.23479H101.15V1.76117H105.043V7.23479H110.686V10.5436H105.043V18.9192C105.043 20.3101 105.279 21.3041 105.756 21.9045C106.23 22.5049 107.047 22.8018 108.205 22.7951C108.642 22.7984 109.075 22.7784 109.512 22.7317C109.873 22.695 110.263 22.635 110.69 22.5649V25.8338C110.203 25.9772 109.706 26.0839 109.202 26.1606C108.625 26.244 108.041 26.2874 107.458 26.2841C103.251 26.2841 101.15 23.9859 101.153 19.3862L101.15 10.5403Z" fill="#8895A7"/>
<path d="M130.997 25.8906H127.171V23.2822C126.51 24.2429 125.62 25.0167 124.579 25.5404C123.468 26.0841 122.244 26.3576 121.007 26.3342C119.459 26.3643 117.935 25.924 116.64 25.0767C115.346 24.2128 114.312 23.0154 113.645 21.6078C112.895 20.0334 112.521 18.3056 112.554 16.5611C112.518 14.8099 112.898 13.0788 113.665 11.5044C114.352 10.0968 115.41 8.9027 116.727 8.05547C118.071 7.20824 119.636 6.7713 121.223 6.80132C122.407 6.7813 123.582 7.0348 124.652 7.54181C125.65 8.01879 126.517 8.73259 127.174 9.62318V7.23159H131V25.8906H130.997ZM127.097 13.7726C126.714 12.7519 126.023 11.8747 125.123 11.2609C124.202 10.6405 123.115 10.3203 122.004 10.3437C120.493 10.2769 119.029 10.8907 118.018 12.0181C117.034 13.1388 116.537 14.6498 116.534 16.5578C116.53 18.4657 117.007 19.9834 117.968 21.1108C118.932 22.2382 120.363 22.8619 121.847 22.7952C122.991 22.8052 124.112 22.4717 125.063 21.8379C125.99 21.2409 126.704 20.3636 127.101 19.3363L127.097 13.7726Z" fill="#8895A7"/>
<path d="M-0.000183105 51.4474V39.5995H4.44609C5.35003 39.5995 6.07717 39.7196 6.6242 39.9598C7.17123 40.2 7.59818 40.5669 7.90838 41.0672C8.21859 41.5642 8.37202 42.0879 8.37202 42.6316C8.37202 43.1386 8.23527 43.6155 7.95842 44.0625C7.68157 44.5095 7.26796 44.8697 6.71426 45.1466C7.4314 45.3567 7.98177 45.7136 8.36535 46.2206C8.74894 46.7276 8.9424 47.3247 8.9424 48.0151C8.9424 48.5688 8.82566 49.0858 8.59217 49.5628C8.35868 50.0398 8.06849 50.4067 7.72493 50.6669C7.38137 50.927 6.94775 51.1205 6.42741 51.2539C5.90706 51.3874 5.26997 51.4507 4.51614 51.4507H-0.000183105V51.4474ZM1.56752 44.5795H4.12922C4.82301 44.5795 5.32334 44.5328 5.62354 44.4428C6.02047 44.3227 6.324 44.1259 6.52413 43.8524C6.7276 43.5788 6.82767 43.232 6.82767 42.8183C6.82767 42.4247 6.73427 42.0779 6.54415 41.781C6.35402 41.4808 6.08718 41.2773 5.73695 41.1673C5.38671 41.0572 4.78632 41.0005 3.93576 41.0005H1.56752V44.5795ZM1.56752 50.0498H4.51614C5.02314 50.0498 5.37671 50.0298 5.58351 49.9931C5.94375 49.9297 6.24728 49.8196 6.48744 49.6695C6.73094 49.5194 6.92774 49.2993 7.08451 49.0124C7.24128 48.7256 7.318 48.392 7.318 48.0151C7.318 47.5748 7.20459 47.1879 6.97777 46.8644C6.75095 46.5375 6.43741 46.3107 6.03714 46.1772C5.63688 46.0438 5.0565 45.9804 4.30266 45.9804H1.56419V50.0498H1.56752Z" fill="#8895A7"/>
<path d="M17.3047 51.4474V50.1866C16.6376 51.1572 15.7303 51.6409 14.5795 51.6409C14.0725 51.6409 13.5989 51.5441 13.1619 51.3507C12.7216 51.1572 12.3981 50.9137 12.1846 50.6202C11.9711 50.3267 11.821 49.9664 11.7376 49.5395C11.6776 49.2526 11.6476 48.8023 11.6476 48.1819V42.8651H13.1019V47.6249C13.1019 48.3854 13.1319 48.8957 13.1919 49.1592C13.282 49.5428 13.4788 49.843 13.7723 50.0598C14.0692 50.2766 14.4361 50.3867 14.8731 50.3867C15.31 50.3867 15.7203 50.2733 16.1005 50.0498C16.4841 49.8263 16.7543 49.5228 16.9111 49.1359C17.0712 48.749 17.1479 48.1919 17.1479 47.4581V42.8584H18.6022V51.4407H17.3047V51.4474Z" fill="#8895A7"/>
<path d="M20.3033 48.8857L21.7409 48.6589C21.821 49.2359 22.0478 49.6762 22.4147 49.9831C22.7849 50.29 23.2986 50.4434 23.9624 50.4434C24.6295 50.4434 25.1265 50.3066 25.45 50.0365C25.7736 49.7629 25.9337 49.4461 25.9337 49.0792C25.9337 48.7523 25.7902 48.4921 25.5067 48.302C25.3066 48.1719 24.8129 48.0085 24.0191 47.8083C22.9517 47.5381 22.2112 47.3047 21.8009 47.1079C21.3873 46.9111 21.0771 46.6375 20.8637 46.2906C20.6502 45.9438 20.5434 45.5602 20.5434 45.1399C20.5434 44.7563 20.6302 44.4027 20.8069 44.0759C20.9837 43.749 21.2206 43.4788 21.5208 43.262C21.7476 43.0952 22.0544 42.9551 22.4447 42.8384C22.835 42.7216 23.2552 42.6649 23.7022 42.6649C24.376 42.6649 24.9664 42.7616 25.4767 42.9551C25.987 43.1486 26.3606 43.4121 26.6041 43.7423C26.8476 44.0725 27.0144 44.5161 27.1044 45.0732L25.6835 45.2666C25.6201 44.8264 25.4333 44.4795 25.1231 44.2326C24.8129 43.9858 24.376 43.8624 23.8089 43.8624C23.1418 43.8624 22.6648 43.9725 22.378 44.1926C22.0911 44.4127 21.951 44.6729 21.951 44.9698C21.951 45.1599 22.0111 45.3267 22.1278 45.4801C22.2479 45.6369 22.4314 45.767 22.6849 45.867C22.8316 45.9204 23.2586 46.0438 23.969 46.2373C24.9997 46.5108 25.7169 46.7376 26.1238 46.9111C26.5307 47.0878 26.8509 47.3413 27.0811 47.6749C27.3112 48.0085 27.428 48.4221 27.428 48.9191C27.428 49.4027 27.2879 49.8597 27.0044 50.29C26.7209 50.7169 26.3139 51.0505 25.7802 51.284C25.2466 51.5174 24.6428 51.6342 23.969 51.6342C22.855 51.6342 22.0044 51.404 21.4207 50.9404C20.837 50.4834 20.4634 49.7963 20.3033 48.8857Z" fill="#8895A7"/>
<path d="M29.1691 41.274V39.5995H30.6234V41.274H29.1691ZM29.1691 51.4474V42.865H30.6234V51.4474H29.1691Z" fill="#8895A7"/>
<path d="M32.8349 51.4474V42.8651H34.1424V44.0859C34.7729 43.1419 35.6835 42.6716 36.8742 42.6716C37.3913 42.6716 37.8682 42.765 38.3019 42.9518C38.7355 43.1386 39.059 43.3821 39.2758 43.6823C39.4926 43.9825 39.6427 44.3427 39.7295 44.7563C39.7828 45.0265 39.8095 45.4968 39.8095 46.1706V51.4474H38.3552V46.2273C38.3552 45.6336 38.2985 45.1933 38.1851 44.8964C38.0717 44.6029 37.8716 44.3694 37.5814 44.1926C37.2945 44.0192 36.9543 43.9291 36.5674 43.9291C35.947 43.9291 35.4133 44.1259 34.963 44.5195C34.5127 44.9131 34.2892 45.6603 34.2892 46.7577V51.4441H32.8349V51.4474Z" fill="#8895A7"/>
<path d="M47.9182 48.6856L49.4226 48.8724C49.1858 49.7497 48.7455 50.4334 48.105 50.9171C47.4646 51.4007 46.6441 51.6442 45.6467 51.6442C44.3926 51.6442 43.3953 51.2573 42.6614 50.4835C41.9243 49.7096 41.5574 48.6256 41.5574 47.2313C41.5574 45.787 41.9276 44.6663 42.6714 43.8691C43.4153 43.0719 44.3792 42.6716 45.5634 42.6716C46.7108 42.6716 47.6481 43.0619 48.3752 43.8424C49.1024 44.6229 49.4659 45.7237 49.4659 47.1379C49.4659 47.2246 49.4626 47.3547 49.4593 47.5248H43.0584C43.1117 48.4688 43.3786 49.1893 43.8589 49.6896C44.3392 50.1899 44.9363 50.4401 45.6534 50.4401C46.1871 50.4401 46.6407 50.3 47.021 50.0198C47.3979 49.7463 47.6948 49.2994 47.9182 48.6856ZM43.1418 46.3341H47.9349C47.8716 45.6136 47.6881 45.0699 47.3846 44.7097C46.9209 44.1493 46.3205 43.8691 45.5834 43.8691C44.9163 43.8691 44.3526 44.0926 43.8989 44.5395C43.442 44.9865 43.1885 45.5836 43.1418 46.3341Z" fill="#8895A7"/>
<path d="M50.6634 48.8857L52.101 48.6589C52.1811 49.2359 52.4079 49.6762 52.7748 49.9831C53.145 50.29 53.6587 50.4434 54.3225 50.4434C54.9896 50.4434 55.4866 50.3066 55.8101 50.0365C56.1337 49.7629 56.2938 49.4461 56.2938 49.0792C56.2938 48.7523 56.1504 48.4921 55.8668 48.302C55.6667 48.1719 55.173 48.0085 54.3792 47.8083C53.3118 47.5381 52.5713 47.3047 52.161 47.1079C51.7474 46.9111 51.4372 46.6375 51.2238 46.2906C51.0103 45.9438 50.9036 45.5602 50.9036 45.1399C50.9036 44.7563 50.9903 44.4027 51.1671 44.0759C51.3438 43.749 51.5807 43.4788 51.8809 43.262C52.1077 43.0952 52.4146 42.9551 52.8048 42.8384C53.1951 42.7216 53.6153 42.6649 54.0623 42.6649C54.7361 42.6649 55.3265 42.7616 55.8368 42.9551C56.3472 43.1486 56.7207 43.4121 56.9642 43.7423C57.2077 44.0725 57.3745 44.5161 57.4646 45.0732L56.0436 45.2666C55.9802 44.8264 55.7935 44.4795 55.4833 44.2326C55.173 43.9858 54.7361 43.8624 54.169 43.8624C53.5019 43.8624 53.025 43.9725 52.7381 44.1926C52.4512 44.4127 52.3111 44.6729 52.3111 44.9698C52.3111 45.1599 52.3712 45.3267 52.4879 45.4801C52.608 45.6369 52.7915 45.767 53.045 45.867C53.1917 45.9204 53.6187 46.0438 54.3291 46.2373C55.3598 46.5108 56.077 46.7376 56.4839 46.9111C56.8909 47.0878 57.2111 47.3413 57.4412 47.6749C57.6714 48.0085 57.7881 48.4221 57.7881 48.9191C57.7881 49.4027 57.648 49.8597 57.3645 50.29C57.081 50.7169 56.674 51.0505 56.1404 51.284C55.6067 51.5174 55.0029 51.6342 54.3291 51.6342C53.2151 51.6342 52.3645 51.404 51.7808 50.9404C51.2004 50.4834 50.8268 49.7963 50.6634 48.8857Z" fill="#8895A7"/>
<path d="M58.9391 48.8858L60.3768 48.6589C60.4568 49.236 60.6836 49.6763 61.0505 49.9832C61.4208 50.29 61.9345 50.4435 62.5982 50.4435C63.2653 50.4435 63.7623 50.3067 64.0859 50.0365C64.4094 49.763 64.5695 49.4461 64.5695 49.0792C64.5695 48.7523 64.4261 48.4922 64.1426 48.302C63.9425 48.172 63.4488 48.0085 62.6549 47.8084C61.5876 47.5382 60.8471 47.3047 60.4368 47.1079C60.0232 46.9111 59.713 46.6376 59.4995 46.2907C59.286 45.9438 59.1793 45.5602 59.1793 45.14C59.1793 44.7564 59.266 44.4028 59.4428 44.0759C59.6196 43.749 59.8564 43.4789 60.1566 43.262C60.3834 43.0953 60.6903 42.9552 61.0806 42.8384C61.4708 42.7217 61.8911 42.665 62.3381 42.665C63.0118 42.665 63.6022 42.7617 64.1126 42.9552C64.6229 43.1486 64.9965 43.4121 65.24 43.7424C65.4835 44.0726 65.6503 44.5162 65.7403 45.0732L64.3194 45.2667C64.256 44.8264 64.0692 44.4795 63.759 44.2327C63.4488 43.9859 63.0118 43.8624 62.4448 43.8624C61.7777 43.8624 61.3007 43.9725 61.0139 44.1927C60.727 44.4128 60.5869 44.673 60.5869 44.9698C60.5869 45.16 60.6469 45.3267 60.7637 45.4802C60.8838 45.6369 61.0672 45.767 61.3207 45.8671C61.4675 45.9205 61.8944 46.0439 62.6049 46.2373C63.6356 46.5109 64.3527 46.7377 64.7597 46.9111C65.1666 47.0879 65.4868 47.3414 65.717 47.675C65.9471 48.0085 66.0639 48.4221 66.0639 48.9191C66.0639 49.4028 65.9238 49.8597 65.6402 50.29C65.3567 50.717 64.9498 51.0505 64.4161 51.284C63.8824 51.5175 63.2787 51.6343 62.6049 51.6343C61.4908 51.6343 60.6403 51.4041 60.0566 50.9405C59.4762 50.4835 59.1026 49.7964 58.9391 48.8858Z" fill="#8895A7"/>
<path d="M73.5117 51.4474V39.5995H77.9813C78.7685 39.5995 79.3689 39.6362 79.7825 39.713C80.3663 39.8097 80.8532 39.9931 81.2468 40.2667C81.6404 40.5402 81.9573 40.9204 82.1975 41.4107C82.4376 41.9011 82.5577 42.4414 82.5577 43.0285C82.5577 44.0358 82.2375 44.8897 81.5971 45.5868C80.9566 46.284 79.7959 46.6342 78.1214 46.6342H75.0828V51.4507H73.5117V51.4474ZM75.0794 45.2333H78.1415C79.1555 45.2333 79.8726 45.0465 80.2995 44.6662C80.7265 44.2893 80.9366 43.759 80.9366 43.0752C80.9366 42.5782 80.8099 42.1546 80.5597 41.801C80.3096 41.4474 79.9793 41.214 79.5691 41.1005C79.3056 41.0305 78.8186 40.9938 78.1048 40.9938H75.0727V45.2333H75.0794Z" fill="#8895A7"/>
<path d="M90.1528 50.3901C89.6158 50.8471 89.0954 51.1706 88.5985 51.3607C88.1015 51.5475 87.5644 51.6443 86.9941 51.6443C86.0501 51.6443 85.3263 51.4141 84.8193 50.9538C84.3123 50.4935 84.0588 49.9031 84.0588 49.1893C84.0588 48.769 84.1555 48.3854 84.3456 48.0385C84.5358 47.6916 84.7859 47.4115 85.0961 47.2013C85.4063 46.9912 85.7532 46.8311 86.1435 46.7243C86.4303 46.6476 86.8606 46.5742 87.4377 46.5042C88.6118 46.3641 89.4757 46.1973 90.0327 46.0039C90.0394 45.8037 90.0394 45.677 90.0394 45.6236C90.0394 45.0299 89.9026 44.6129 89.6258 44.3694C89.2556 44.0426 88.7019 43.8758 87.968 43.8758C87.2842 43.8758 86.7772 43.9959 86.4537 44.236C86.1268 44.4762 85.8867 44.8998 85.7299 45.5102L84.3089 45.3167C84.439 44.7097 84.6525 44.216 84.946 43.8424C85.2429 43.4688 85.6698 43.1787 86.2302 42.9785C86.7906 42.7751 87.441 42.675 88.1782 42.675C88.912 42.675 89.5057 42.7617 89.9627 42.9352C90.4197 43.1086 90.7565 43.3254 90.9734 43.5856C91.1902 43.8458 91.3403 44.176 91.427 44.5763C91.4737 44.8231 91.5004 45.27 91.5004 45.9171V47.8551C91.5004 49.206 91.5304 50.0632 91.5938 50.4201C91.6571 50.777 91.7772 51.1206 91.9607 51.4508H90.443C90.2929 51.1473 90.1962 50.7937 90.1528 50.3901ZM90.0327 47.1413C89.5057 47.3581 88.7119 47.5415 87.6578 47.6916C87.0608 47.7784 86.6371 47.8751 86.3903 47.9818C86.1435 48.0886 85.95 48.2487 85.8166 48.4555C85.6832 48.6623 85.6131 48.8924 85.6131 49.1459C85.6131 49.5329 85.7599 49.8564 86.0534 50.1166C86.347 50.3734 86.7772 50.5035 87.3443 50.5035C87.9047 50.5035 88.4017 50.3801 88.8386 50.1366C89.2756 49.8931 89.5958 49.5562 89.7992 49.1293C89.956 48.8024 90.0327 48.3154 90.0327 47.675V47.1413Z" fill="#8895A7"/>
<path d="M93.6152 51.4474V42.8651H94.9261V44.166C95.2597 43.5589 95.5699 43.1553 95.8501 42.9618C96.1336 42.7684 96.4438 42.6716 96.784 42.6716C97.2743 42.6716 97.7713 42.8284 98.2783 43.1419L97.778 44.4928C97.4211 44.2827 97.0675 44.176 96.7106 44.176C96.3937 44.176 96.1069 44.2727 95.8534 44.4628C95.5999 44.653 95.4198 44.9198 95.313 45.26C95.1529 45.777 95.0695 46.3441 95.0695 46.9578V51.4508H93.6152V51.4474Z" fill="#8895A7"/>
<path d="M103.312 50.1466L103.522 51.4307C103.111 51.5175 102.744 51.5608 102.421 51.5608C101.894 51.5608 101.484 51.4774 101.193 51.3107C100.903 51.1439 100.696 50.9237 100.58 50.6536C100.46 50.38 100.403 49.8097 100.403 48.9358V43.9992H99.3356V42.8684H100.403V40.7437L101.851 39.8698V42.8684H103.315V43.9992H101.851V49.0191C101.851 49.4328 101.877 49.6996 101.927 49.8197C101.977 49.9398 102.061 50.0332 102.177 50.1032C102.294 50.1732 102.458 50.2099 102.674 50.2099C102.835 50.2033 103.048 50.1866 103.312 50.1466Z" fill="#8895A7"/>
<path d="M104.736 51.4475V42.8652H106.043V44.086C106.674 43.142 107.584 42.6717 108.775 42.6717C109.292 42.6717 109.769 42.7651 110.203 42.9519C110.636 43.1387 110.96 43.3822 111.177 43.6824C111.394 43.9826 111.544 44.3428 111.63 44.7564C111.684 45.0266 111.71 45.4969 111.71 46.1707V51.4475H110.256V46.2274C110.256 45.6337 110.199 45.1934 110.086 44.8965C109.973 44.603 109.773 44.3695 109.482 44.1927C109.195 44.0193 108.855 43.9292 108.468 43.9292C107.848 43.9292 107.314 44.126 106.864 44.5196C106.414 44.9132 106.19 45.6603 106.19 46.7577V51.4442H104.736V51.4475Z" fill="#8895A7"/>
<path d="M119.816 48.6857L121.32 48.8725C121.083 49.7497 120.643 50.4335 120.003 50.9172C119.362 51.4008 118.542 51.6443 117.544 51.6443C116.29 51.6443 115.293 51.2574 114.559 50.4835C113.825 49.7097 113.455 48.6256 113.455 47.2314C113.455 45.7871 113.825 44.6664 114.569 43.8692C115.313 43.072 116.277 42.6717 117.461 42.6717C118.608 42.6717 119.546 43.062 120.273 43.8425C121 44.623 121.363 45.7237 121.363 47.138C121.363 47.2247 121.36 47.3548 121.357 47.5249H114.956C115.009 48.4689 115.276 49.1893 115.756 49.6897C116.237 50.19 116.834 50.4402 117.551 50.4402C118.085 50.4402 118.538 50.3001 118.919 50.0199C119.295 49.7464 119.596 49.2994 119.816 48.6857ZM115.039 46.3341H119.832C119.769 45.6136 119.586 45.07 119.282 44.7097C118.818 44.1493 118.218 43.8692 117.481 43.8692C116.814 43.8692 116.25 44.0926 115.796 44.5396C115.339 44.9866 115.086 45.5836 115.039 46.3341Z" fill="#8895A7"/>
<path d="M123.128 51.4475V42.8652H124.436V44.166C124.769 43.5589 125.079 43.1554 125.36 42.9619C125.643 42.7684 125.953 42.6717 126.293 42.6717C126.784 42.6717 127.281 42.8285 127.788 43.142L127.287 44.4929C126.931 44.2828 126.577 44.176 126.22 44.176C125.903 44.176 125.616 44.2728 125.363 44.4629C125.109 44.653 124.929 44.9198 124.823 45.2601C124.662 45.7771 124.579 46.3441 124.579 46.9579V51.4508H123.128V51.4475Z" fill="#8895A7"/>
<path d="M0.29408 17.5394C0.29408 12.6238 1.41776 8.4598 3.92818 4.76558C5.83354 1.96202 8.38906 -0.0297829 11.9856 0.00404016C14.0713 0.0265889 15.8903 0.932295 17.4762 2.28522C18.4383 3.10824 19.3102 4.02523 20.1144 4.99858C20.5804 5.55854 20.8698 5.55102 21.3283 4.94221C22.9668 2.7625 24.8233 0.849618 27.6193 0.173157C29.6299 -0.31164 31.4301 0.26711 33.0573 1.34193C36.6163 3.69451 38.3112 7.27224 39.3221 11.2558C39.8858 13.4694 40.2466 15.7167 40.0813 18.0054C39.9046 20.4707 39.4649 22.9135 37.5708 24.6949C35.4663 26.6716 32.9859 26.8257 30.3778 25.7321C28.2845 24.8527 26.9692 23.1277 25.7967 21.3276C24.0567 18.6518 22.4519 15.8896 20.7908 13.165C20.3061 12.372 20.0467 12.3607 19.577 13.1687C18.2804 15.3973 17.0478 17.6634 15.7061 19.8619C14.5373 21.7786 13.2521 23.6013 11.4519 25.0331C9.00164 26.9836 4.6535 26.8445 2.42869 24.2514C0.651102 22.1807 0.230192 19.7078 0.286564 17.5394H0.29408ZM36.4133 16.9231C36.3344 15.4649 36.2442 14.003 35.9436 12.5712C35.7594 11.6955 35.5152 10.8274 35.2333 9.97433C34.5042 7.7871 33.4407 5.80657 31.5842 4.34091C29.8291 2.9504 27.4728 2.96544 25.7591 4.39728C24.6918 5.28795 23.8687 6.39284 23.0532 7.50524C22.6812 8.01259 22.7376 8.42222 23.0645 8.94836C24.6579 11.4964 26.1725 14.0895 27.7885 16.6224C28.8144 18.2272 29.7615 19.9033 31.1257 21.2675C32.8694 23.015 35.4062 22.3836 36.0939 20.0198C36.387 19.0126 36.4209 17.9716 36.4096 16.9268L36.4133 16.9231ZM4.3566 17.483C4.42049 18.0017 4.46183 18.7044 4.59337 19.3922C5.00676 21.5305 6.7167 22.6993 8.54315 22.0905C9.44885 21.7898 10.1554 21.1773 10.7379 20.4407C13.4287 17.0471 15.5182 13.2476 17.9347 9.66992C18.1301 9.37679 18.0399 9.17009 17.867 8.92205C17.044 7.74576 16.1571 6.62585 15.0748 5.67128C12.5906 3.4803 9.70065 3.82229 7.73139 6.47928C5.34123 9.70374 4.57457 13.413 4.3566 17.4868V17.483Z" fill="#8895A7"/>
</svg>
