<svg width="333" height="60" viewBox="0 0 333 60" fill="none" xmlns="http://www.w3.org/2000/svg">
<path d="M196.629 56.0747L201.169 31.8784C201.741 28.8393 202.165 26.1516 202.444 24.0645H204.384L203.674 28.6562H203.769C205.805 25.5804 208.647 23.5884 211.678 23.5884C215.992 23.5884 217.596 27.2794 217.596 30.9777C217.596 38.6525 212.337 47.2648 205.095 47.2648C202.868 47.2648 201.404 46.7448 200.547 46.2688H200.452L198.657 56.0674H196.622L196.629 56.0747ZM200.891 44.1963C201.931 45.0018 203.447 45.4705 205.292 45.4705C211.305 45.4705 215.472 36.9462 215.472 31.1168C215.472 28.4145 214.432 25.4339 211.071 25.4339C207.709 25.4339 203.637 29.5057 202.356 36.375L200.884 44.189L200.891 44.1963Z" fill="#8895A7"/>
<path d="M233.275 46.7887C233.224 45.4193 233.509 43.2882 233.839 40.6811H233.751C231.144 45.6976 228.258 47.2647 225.271 47.2647C221.821 47.2647 219.727 44.4233 219.727 40.3515C219.727 32.6327 225.271 23.5884 234.081 23.5884C235.692 23.5884 237.493 23.8741 238.672 24.2475L236.256 36.5141C235.45 40.725 235.164 44.3794 235.26 46.7887H233.268H233.275ZM236.314 25.7635C235.794 25.5731 234.989 25.4339 233.568 25.4339C227.035 25.4339 221.916 32.728 221.873 39.8755C221.821 42.8122 222.678 45.4632 225.754 45.4632C229.445 45.4632 233.619 39.9268 234.703 34.0535L236.314 25.7635Z" fill="#8895A7"/>
<path d="M240.613 46.7887L243.506 31.4903C244.07 28.6049 244.406 26.0418 244.597 24.0571H246.494C246.303 25.5291 246.113 27.0377 245.827 28.9857H245.922C247.343 25.9466 249.569 23.5884 252.411 23.5884C252.696 23.5884 252.982 23.6251 253.26 23.6836L252.879 25.8147C252.616 25.7561 252.345 25.7195 252.074 25.7195C249.093 25.7195 245.776 30.216 244.831 35.2398L242.7 46.7961H240.62L240.613 46.7887Z" fill="#8895A7"/>
<path d="M261.872 19.0406L260.877 24.0645H266.23L265.849 25.8147H260.496L257.984 39.3556C257.698 40.8715 257.508 42.0579 257.508 43.2882C257.508 44.6137 258.123 45.4193 259.544 45.4193C260.298 45.4193 260.774 45.3753 261.199 45.2289L261.338 46.8839C260.613 47.1036 259.866 47.2135 259.112 47.2135C256.409 47.2135 255.369 45.4193 255.369 43.5225C255.369 42.2922 255.509 41.1058 255.889 39.3556L258.445 25.8147H255.179L255.508 24.0645H258.819L259.573 19.9927L261.858 19.048L261.872 19.0406Z" fill="#8895A7"/>
<path d="M265.71 46.7887L268.749 30.736C269.211 28.5317 269.555 26.2981 269.789 24.0571H271.678L271.056 28.7001H271.151C273.143 25.39 275.977 23.5884 279.06 23.5884C281.287 23.5884 284.128 25.0092 284.128 29.3153C284.128 30.4504 283.938 31.5855 283.703 32.8158L281.096 46.7887H279.06L281.711 32.8158C281.924 31.7247 282.034 30.6188 282.041 29.5057C282.041 27.1403 281.096 25.4339 278.299 25.4339C275.26 25.4339 271.005 29.2201 270.016 34.7126L267.79 46.7887H265.703H265.71Z" fill="#8895A7"/>
<path d="M300.796 45.5145C299.61 46.2688 297.435 47.2208 294.593 47.2208C289.291 47.2208 287.446 43.0538 287.446 38.6965C287.446 32.1641 291.993 23.5884 298.526 23.5884C302.268 23.5884 303.828 26.0491 303.828 28.5537C303.828 34.3318 297.2 35.9429 289.76 35.8916C289.525 36.9315 289.481 39.9195 289.95 41.5233C290.756 44.1304 292.506 45.3607 294.915 45.3607C297.325 45.3607 299.126 44.4599 300.173 43.8448L300.796 45.5072V45.5145ZM298.145 25.4339C294.644 25.4339 291.466 29.2201 290.097 34.0974C296.014 34.1414 301.697 33.1527 301.697 28.6489C301.697 26.5178 300.276 25.4266 298.145 25.4266V25.4339Z" fill="#8895A7"/>
<path d="M304.963 46.7887L307.856 31.4903C308.427 28.6049 308.756 26.0418 308.947 24.0571H310.844C310.653 25.5291 310.463 27.0377 310.177 28.9857H310.272C311.693 25.9466 313.919 23.5884 316.761 23.5884C317.046 23.5884 317.332 23.6251 317.61 23.6836L317.229 25.8147C316.966 25.7561 316.695 25.7195 316.424 25.7195C313.443 25.7195 310.126 30.216 309.181 35.2398L307.05 46.7961H304.97L304.963 46.7887Z" fill="#8895A7"/>
<path d="M316.658 44.1377C317.852 44.9213 319.251 45.3534 320.686 45.368C323.667 45.368 325.651 43.2369 325.651 40.6738C325.651 38.3962 324.707 37.0267 322.575 35.65C320.349 34.1853 319.119 32.1494 319.119 30.0623C319.119 26.5104 321.96 23.5738 325.937 23.5738C327.497 23.5738 329.064 24.0937 329.723 24.6137L328.961 26.3713C328.251 25.9465 327.021 25.4266 325.695 25.4266C322.949 25.4266 321.147 27.3233 321.147 29.6888C321.147 31.8199 322.334 32.9989 324.223 34.2439C326.398 35.7085 327.724 37.7957 327.724 40.0659C327.724 44.6576 324.362 47.2135 320.481 47.2135C318.445 47.2135 316.644 46.4592 315.889 45.844L316.651 44.1304L316.658 44.1377Z" fill="#8895A7"/>
<path d="M43.6813 12.9916C43.6667 12.8744 43.6081 12.7719 43.5202 12.6913C43.4323 12.6107 43.3298 12.5668 43.2126 12.5522C43.0222 12.5375 39.2361 12.4789 39.2361 12.4789C39.2361 12.4789 36.0724 9.41045 35.7575 9.10287C35.4426 8.79529 34.8348 8.88317 34.6004 8.9564L33.0112 9.44707C32.8135 8.80261 32.5572 8.17281 32.2496 7.57962C31.1218 5.43389 29.4741 4.29145 27.4821 4.29145C27.343 4.29145 27.2038 4.30609 27.0647 4.32074C27.0061 4.24751 26.9475 4.1816 26.8816 4.11569C26.0175 3.18562 24.897 2.7389 23.5715 2.77552C20.9937 2.84143 18.4305 4.69423 16.3507 8.01169C14.886 10.3332 13.7802 13.2552 13.458 15.5108L8.39022 17.078C6.89627 17.5467 6.85233 17.5906 6.6546 18.9967C6.50813 20.0586 2.6048 50.2526 2.6048 50.2526L35.3254 55.9136L49.5107 52.391C49.5107 52.391 43.7326 13.2698 43.6887 12.9989L43.6813 12.9916ZM31.3708 9.95238L28.8296 10.736C28.8077 9.43242 28.6539 7.61624 28.046 6.04904C30.0014 6.41521 30.9607 8.62685 31.3708 9.94505V9.95238ZM27.1233 11.2706L21.6601 12.9549C22.1874 10.9337 23.1907 8.91979 24.421 7.60159C24.9336 7.02305 25.5707 6.569 26.2738 6.2541C26.9841 7.74073 27.1379 9.84253 27.1233 11.2633V11.2706ZM23.6154 4.47453C24.1647 4.44524 24.6993 4.58438 25.1606 4.87731C24.4063 5.2801 23.7326 5.80737 23.1614 6.43718C21.5283 8.19478 20.276 10.9117 19.7707 13.5408L15.2961 14.9322C16.1749 10.7946 19.6389 4.58438 23.6154 4.47453Z" fill="#8895A7"/>
<path d="M43.22 12.5522C43.0296 12.5376 39.2434 12.479 39.2434 12.479C39.2434 12.479 36.0797 9.41052 35.7648 9.10294C35.6403 8.99309 35.4866 8.91986 35.3254 8.89789V55.9063L49.5034 52.3838C49.5034 52.3838 43.7253 13.2626 43.6814 12.9916C43.6667 12.8745 43.6081 12.7719 43.5202 12.6914C43.4324 12.6108 43.3298 12.5669 43.2127 12.5522H43.22Z" fill="#8895A7"/>
<path d="M27.4675 19.8535L25.8198 26.0124C24.5455 25.4852 23.176 25.2508 21.8066 25.3094C18.6136 25.5144 18.577 27.5284 18.6136 28.0337C18.7894 30.7946 26.0395 31.3878 26.4422 37.8469C26.7645 42.922 23.7473 46.4006 19.4045 46.6789C14.1903 47.0084 11.3269 43.9326 11.3269 43.9326L12.4327 39.2384C12.4327 39.2384 15.3181 41.4061 17.6323 41.2523C19.1409 41.1571 19.6828 39.9267 19.6242 39.0626C19.3972 35.4742 13.4946 35.6792 13.1211 29.7693C12.8062 24.8041 16.0724 19.7583 23.2786 19.3043C26.0541 19.1285 27.4748 19.8389 27.4748 19.8389L27.4675 19.8535Z" fill="white"/>
<path d="M68.7198 32.9989C67.0793 32.1054 66.2372 31.3585 66.2372 30.3186C66.2372 29.0004 67.4089 28.1582 69.247 28.1582C71.3781 28.1582 73.2895 29.0516 73.2895 29.0516L74.7835 24.4526C74.7835 24.4526 73.4067 23.3687 69.3349 23.3687C63.674 23.3687 59.756 26.6056 59.756 31.1681C59.756 33.7532 61.5868 35.7232 64.0328 37.1292C66.0028 38.257 66.7132 39.0626 66.7132 40.227C66.7132 41.3914 65.7245 42.4387 63.8937 42.4387C61.1621 42.4387 58.5843 41.0326 58.5843 41.0326L56.9805 45.6316C56.9805 45.6316 59.3606 47.2281 63.3664 47.2281C69.1885 47.2281 73.3701 44.3647 73.3701 39.1944C73.3701 36.4262 71.261 34.4489 68.7271 32.9916L68.7198 32.9989Z" fill="#8895A7"/>
<path d="M91.9275 23.3175C89.064 23.3175 86.8085 24.6796 85.0728 26.7448L84.9776 26.7009L87.4602 13.6873H80.9864L74.6957 46.8034H81.1841L83.3445 35.4889C84.194 31.212 86.3983 28.5903 88.4635 28.5903C89.9209 28.5903 90.4848 29.5789 90.4848 30.985C90.4848 31.9444 90.3896 32.9037 90.1992 33.8484L87.7532 46.8034H94.2416L96.7755 33.4164C97.0538 32.0249 97.2149 30.6115 97.2442 29.1908C97.2442 25.5218 95.3108 23.3175 91.9275 23.3175Z" fill="#8895A7"/>
<path d="M111.884 23.3174C104.084 23.3174 98.9213 30.3698 98.9213 38.2131C98.9213 43.2369 102.019 47.2794 107.848 47.2794C115.501 47.2794 120.672 40.4247 120.672 32.391C120.672 27.7334 117.947 23.3174 111.884 23.3174ZM108.691 42.2922C106.486 42.2922 105.542 40.4174 105.542 38.0666C105.542 34.3537 107.475 28.2973 110.99 28.2973C113.29 28.2973 114.044 30.2673 114.044 32.1933C114.044 36.1918 112.118 42.2995 108.691 42.2995V42.2922Z" fill="#8895A7"/>
<path d="M137.251 23.3174C132.879 23.3174 130.389 27.1842 130.389 27.1842H130.294L130.668 23.7056H124.941C124.663 26.049 124.143 29.6228 123.623 32.3032L119.112 56.0161H125.6L127.387 46.4372H127.526C127.526 46.4372 128.859 47.2867 131.334 47.2867C138.943 47.2867 143.923 39.4873 143.923 31.6001C143.923 27.2354 141.997 23.3321 137.251 23.3321V23.3174ZM131.056 42.3947C130.082 42.4094 129.13 42.0798 128.376 41.4573L129.459 35.4009C130.214 31.3585 132.323 28.6854 134.578 28.6854C136.548 28.6854 137.164 30.5163 137.164 32.2519C137.164 36.4335 134.674 42.3947 131.056 42.3947Z" fill="#8895A7"/>
<path d="M153.172 14.0242C152.682 14.0242 152.191 14.1194 151.737 14.3098C151.283 14.5002 150.873 14.7785 150.529 15.1227C150.184 15.4742 149.913 15.8843 149.73 16.3457C149.547 16.7997 149.459 17.2904 149.467 17.781C149.467 19.7144 150.69 21.0179 152.521 21.0179H152.616C154.637 21.0179 156.373 19.6558 156.424 17.2611C156.424 15.3863 155.157 14.0242 153.18 14.0242H153.172Z" fill="#8895A7"/>
<path d="M144.106 46.8107H150.587L155.003 23.8448H148.478L144.114 46.8107H144.106Z" fill="#8895A7"/>
<path d="M171.488 23.7935H166.977L167.211 22.717C167.585 20.5127 168.903 18.5354 171.063 18.5354C171.766 18.5354 172.462 18.6452 173.136 18.8649L174.403 13.7972C174.403 13.7972 173.275 13.2333 170.88 13.2333C168.485 13.2333 166.281 13.8924 164.538 15.3937C162.327 17.2684 161.294 19.9927 160.781 22.7243L160.591 23.8008H157.588L156.651 28.6855H159.654L156.226 46.818H162.715L166.135 28.6782H170.595L171.488 23.7935Z" fill="#8895A7"/>
<path d="M187.079 23.8375C187.079 23.8375 183.03 34.0462 181.206 39.6192H181.111C180.986 37.825 179.514 23.8375 179.514 23.8375H172.704L176.6 44.9286C176.695 45.3973 176.644 45.6829 176.461 46.0125C175.706 47.4698 174.439 48.8759 172.938 49.9085C171.715 50.8019 170.353 51.3658 169.276 51.7393L171.063 57.2392C172.381 56.9609 175.106 55.877 177.413 53.7166C180.371 50.9484 183.095 46.6716 185.915 40.8495L193.853 23.8448H187.079V23.8375Z" fill="#8895A7"/>
</svg>
